<?xml version="1.0" encoding="UTF-8"?>
<svg id="Capa_2" data-name="Capa 2" xmlns="http://www.w3.org/2000/svg" viewBox="0 0 259.31 322.01">
  <defs>
    <style>
      .cls-1 {
        fill: #fff;
      }

      .cls-1, .cls-2, .cls-3 {
        stroke-width: 0px;
      }

      .cls-2 {
        fill: #5d3722;
      }

      .cls-3 {
        fill: #f1862f;
      }
    </style>
  </defs>
  <g id="Capa_1-2" data-name="Capa 1">
    <g>
      <path class="cls-2" d="M124.91.33c13.74-1.9,19.9,4.96,21,5,1.45.06,13.12-9.93,27.5-1.5,13.95,8.18,11.07,25.37,11.75,26.75.66,1.34,25.03,5.68,16.5,19-2.26,3.54-30,28.97-35,36,57.43,25.92,80.9,90.18,89,148.5.96,6.93,3.2,26.93,3.5,33,1.8,36.22-12.04,51.23-48.25,54.25-38.52-1.92-140.42,2.75-170-.5-21.36-2.35-38.44-14.03-40.75-36.75-.99-9.75,2.76-46.07,4.5-57.5,8.46-55.75,33.63-116.19,88-141-4.48-6.49-36.99-35.37-37.5-39.5-1.34-10.91,18.42-14.32,19-15.5.68-1.39-2.58-18.54,11.75-26.75,14.5-8.31,26.53,1.65,28,1.5.6-.06,6.36-4.36,11-5Z"/>
      <path class="cls-3" d="M127.41,11.83c6.54-.97,12.01,2.68,12.25,4.25.15,1.01-7.25,11.76,1.75,18.25,11.08.35,6.28-14.23,12.5-19.5,6.25-5.3,16.21-1.36,18.25,6.25,3.57,13.28-8.37,14.81,15.5,24.5-4.69,3.34-30.44,33.3-32.75,33.75-.86.17-12.36-5.33-16.5-6-18.86-3.06-31.78,6.76-33.5,6.5-2.39-.37-29.06-31.25-33.75-34.75,24.75-8.57,12.92-11.72,15.5-23,1.89-8.25,13.44-13.45,19.5-6.5-5.32,17.31,10.22,23.6,12,14.5.3-1.53-4.52-16.22,9.25-18.25Z"/>
      <g>
        <path class="cls-3" d="M127.91,84.83c13.21-.94,44.07,16.63,55,25,28.87,22.1,46.78,61.64,54.75,96.25,3.47,15.1,10.7,64.07,9,77.5-1.97,15.51-16.36,23.69-30.75,25.25H42.91c-14.15-1.19-28.33-9.58-30.25-24.75-1.06-8.38,3.7-51.33,5.5-62,6.7-39.76,24.81-85.52,57.25-111.25,9.5-7.54,41.1-25.19,52.5-26Z"/>
        <path class="cls-1" d="M174,205.51c28.66-25.92,14.24-67.07-22.06-75.23-7.7-1.73-61.97-3.05-68.28-1.81-2.29.45-5.21,2.79-5.74,5.14-1.7,7.48,1.3,132.26,0,153.48q1.06,1.06,2.11,2.11c22.13-1.65,63.06,2.95,82.78-1.81,39.14-9.45,47.47-62.99,11.18-81.88ZM106.02,156.87c10.98.94,34.4-2.01,42.9,1.81,13.01,5.84,12.89,24.89,1.81,32.63-9.72,6.79-32.3,2.36-44.71,3.63v-38.07ZM166.14,246.6c-3.56,23.19-44.19,12.35-60.12,14.8q.3-19.94.6-39.88c18.57.61,64.45-6.99,59.52,25.08Z"/>
      </g>
    </g>
  </g>
</svg>