<?xml version="1.0" encoding="UTF-8"?>
<svg id="Layer_2" data-name="Layer 2" xmlns="http://www.w3.org/2000/svg" xmlns:xlink="http://www.w3.org/1999/xlink" viewBox="0 0 1402.64 1896.56">
  <defs>
    <style>
      .cls-1 {
        fill: #992815;
      }

      .cls-1, .cls-2, .cls-3, .cls-4, .cls-5, .cls-6, .cls-7, .cls-8, .cls-9, .cls-10, .cls-11, .cls-12, .cls-13, .cls-14, .cls-15, .cls-16, .cls-17, .cls-18, .cls-19, .cls-20, .cls-21, .cls-22, .cls-23, .cls-24, .cls-25, .cls-26, .cls-27, .cls-28, .cls-29, .cls-30, .cls-31, .cls-32, .cls-33, .cls-34, .cls-35, .cls-36, .cls-37, .cls-38, .cls-39, .cls-40, .cls-41, .cls-42, .cls-43, .cls-44, .cls-45, .cls-46, .cls-47, .cls-48, .cls-49, .cls-50, .cls-51, .cls-52, .cls-53, .cls-54, .cls-55, .cls-56, .cls-57, .cls-58, .cls-59, .cls-60, .cls-61, .cls-62, .cls-63 {
        stroke-width: 0px;
      }

      .cls-2 {
        fill: #e6a54b;
      }

      .cls-3 {
        fill: #f4f4d9;
      }

      .cls-4 {
        fill: #1f1418;
      }

      .cls-5 {
        fill: #231a13;
      }

      .cls-6 {
        fill: url(#linear-gradient);
      }

      .cls-7 {
        fill: #0f2133;
      }

      .cls-8 {
        fill: #fbefa1;
      }

      .cls-9 {
        fill: #5d9931;
      }

      .cls-10 {
        fill: #9d9c95;
      }

      .cls-11 {
        fill: #08869e;
      }

      .cls-12 {
        fill: #dcbd90;
      }

      .cls-13 {
        fill: #bfc4b9;
      }

      .cls-14 {
        fill: #c38415;
      }

      .cls-15 {
        fill: #e3be18;
      }

      .cls-16 {
        fill: #12261b;
      }

      .cls-17 {
        fill: #a093a0;
      }

      .cls-18 {
        fill: #431823;
      }

      .cls-19 {
        fill: #beddd9;
      }

      .cls-20 {
        fill: #026c82;
      }

      .cls-21 {
        fill: #8a7584;
      }

      .cls-22 {
        fill: #b96a18;
      }

      .cls-23 {
        fill: #432e14;
      }

      .cls-24 {
        fill: #484f1d;
      }

      .cls-25 {
        fill: #518b31;
      }

      .cls-26 {
        fill: #f7dea7;
      }

      .cls-27 {
        fill: #afc3bf;
      }

      .cls-28 {
        fill: #3d443a;
      }

      .cls-29 {
        fill: #faf3e5;
      }

      .cls-30 {
        fill: #867f68;
      }

      .cls-31 {
        fill: #634d13;
      }

      .cls-32 {
        fill: #121b16;
      }

      .cls-33 {
        fill: #6d3d4e;
      }

      .cls-34 {
        fill: #85b926;
      }

      .cls-35 {
        fill: #ab5e21;
      }

      .cls-36 {
        fill: #eaddb9;
      }

      .cls-37 {
        fill: #95c128;
      }

      .cls-38 {
        fill: #978f8d;
      }

      .cls-39 {
        fill: #c7c092;
      }

      .cls-40 {
        fill: #803912;
      }

      .cls-41 {
        fill: #675f1c;
      }

      .cls-42 {
        fill: #df9341;
      }

      .cls-43 {
        fill: #bfafa1;
      }

      .cls-44 {
        fill: #101d23;
      }

      .cls-45 {
        fill: #635340;
      }

      .cls-46 {
        fill: #443a17;
      }

      .cls-47 {
        fill: #deddac;
      }

      .cls-48 {
        fill: #bd5118;
      }

      .cls-49 {
        fill: #382011;
      }

      .cls-50 {
        fill: #69ab2f;
      }

      .cls-51 {
        fill: #efe351;
      }

      .cls-52 {
        fill: #d68339;
      }

      .cls-53 {
        fill: #ebbb4c;
      }

      .cls-54 {
        fill: #8f4e1a;
      }

      .cls-55 {
        fill: #60121b;
      }

      .cls-56 {
        fill: #a8ac9d;
      }

      .cls-57 {
        fill: #f4f6f5;
      }

      .cls-58 {
        fill: #28301a;
      }

      .cls-59 {
        fill: #26140d;
      }

      .cls-60 {
        fill: #092a2e;
      }

      .cls-61 {
        fill: #546926;
      }

      .cls-62 {
        fill: #c27338;
      }

      .cls-63 {
        fill: #212014;
      }
    </style>
    <linearGradient id="linear-gradient" x1="839.67" y1="876.85" x2="920.64" y2="884.46" gradientUnits="userSpaceOnUse">
      <stop offset="0" stop-color="#cd6c14"/>
      <stop offset="1" stop-color="#b27813"/>
    </linearGradient>
  </defs>
  <g id="Capa_1" data-name="Capa 1">
    <g>
      <g id="Background">
        <path class="cls-7" d="M1056.35,282.38c.79,10.82-9.85-3.52-21.46-4.52-37.49-3.23-49.21,58.83-68.9,81.33-8.28-75.07-25.32-136.46-72.29-197.67-77.51-101.01-196.33-142.93-317.4-93.75-107.35,43.61-143.98,203.52-157.01,306.1-3.14,24.72-.67,69.45-4.52,86.97-8.47,38.55-18.2,20.62-32.76,24.85-7.17,2.08-19.69,29.52-29.37,29.37-19.74-.31-72.44-87.14-94.88-103.92-34.94-26.12-65.1-13.27-62.12-27.11,13.59,4.47,30.25,4.41,37.27,6.78,45.64,15.38,101.17,112.1,108.44,106.18-3.4-78.99-.78-158.48,21.46-234.94,32.29-110.98,107.25-188.71,213.48-232.68C665.22-7.45,688.06,4.64,779.61,0c101.2,15.31,177.69,93.63,222.52,181.86,20.23,39.8,29.37,79.73,31.63,83.59,3.2,5.45,16.34,12.45,22.59,16.94Z"/>
        <path class="cls-7" d="M1359.07,1879.55c-.39,1.18.1,7.28-5.65,15.81-425.09.35-850.19,3.56-1275.25-2.26-6.34-7.73-3.68-16.64,6.78-20.33,419.15,6.78,839.26-9.05,1258.3,0,.97.02,6.32,11.49,10.17-6.78l5.65,13.55Z"/>
      </g>
      <g>
        <g>
          <path class="cls-49" d="M290.52,711.61c39.66,7.92-9.65,23.05,10.17,45.18,4.55-8.35,1.59-9.57,10.17-6.78.91,3.75,8.03,9.15,11.3,11.3.81.53,14.44,5.55,18.07,6.78-14.25,3.37-34.67,52.58-9.04,45.18-4.12,26.57,8.68,108.95,0,149.1-7.78-1.33-28.67-.86-42.92-2.26.29-2.15-.49-4.91,0-6.78.88-3.32,6.9-17.45,11.3-31.63,20.23-65.28,27.24-110.4-13.55-169.43-11.41-16.52-23.08-24.68-24.85-27.11-2.94-4.03-6.61-10.18-9.04-13.55,11.85,1.67,27-2.28,38.4,0Z"/>
          <path class="cls-23" d="M240.82,698.05c7.15,10.05,10.78,12.84,11.3,13.55,2.42,3.38,6.1,9.52,9.04,13.55-19.35-12.46-73.52,1.27-92.62,11.3,48.63-35.57,75.54-11.49,65.51-33.89l6.78-4.52Z"/>
          <path class="cls-31" d="M286.01,752.27c40.8,59.03,33.79,104.15,13.55,169.43-24.2-15.57-76.09-79.25-90.36-63.25-.93-1.19-11.95-11.48-11.3-12.42,1.93-2.77,22.98,0,54.22-38.4,21.33-26.23,23.71-50.19,33.89-55.35Z"/>
          <path class="cls-31" d="M299.56,921.7c-4.4,14.18-10.42,28.3-11.3,31.63-25.06-32.63-53.79-62.47-79.07-94.88,14.27-16,66.17,47.68,90.36,63.25Z"/>
          <g>
            <path class="cls-41" d="M261.16,725.16c1.77,2.43,13.44,10.59,24.85,27.11-10.17,5.15-12.56,29.12-33.89,55.35-31.23,38.4-52.29,35.63-54.22,38.4-.66.94,10.36,11.23,11.3,12.42,25.28,32.41,54.01,62.25,79.07,94.88-.49,1.87.29,4.63,0,6.78-23.97-2.35-153.22-17.41-163.78-22.59-13.54-6.65,13.36-61.77-23.72-91.49,16.85-16.18,9.06,9.99,15.81-12.42,8.66-28.74,17.27-71.81,42.92-92.62,1.08-.88,3.22,2.37,3.39,2.26,4.76-3.27,3.06-6.59,3.39-6.78.57-.32,1.67.31,2.26,0,19.11-10.03,73.28-23.75,92.62-11.3Z"/>
            <path class="cls-57" d="M185.48,779.38c36.89-1.98,10.51,47.49-7.91,14.68l7.91-14.68Z"/>
            <path class="cls-3" d="M169.66,826.82q6.21,2.82,12.42,5.65c1.45,27.08-30.98,12.2-12.42-5.65Z"/>
          </g>
        </g>
        <g>
          <g>
            <path class="cls-52" d="M550.32,375.01c12.24,23,19.18,50.51,33.89,73.42,18.79,29.28,32.93,33.82,33.89,36.15.99,2.41-30.88,33.76-33.89,39.53-.1-7.44.6-15.21,0-22.59-2.86-34.87-14.93-40.16-18.07-47.44-13.65-31.66-38.97-104.01-45.18-114.08-19.95-32.32-36.75-19.7-29.37-44.05l3.39-2.26c24.14,23.51,39.63,51.78,55.35,81.33Z"/>
            <path class="cls-42" d="M550.32,375.01c-15.72-29.55-31.21-57.82-55.35-81.33l-3.39,2.26c5.27-17.4,13.9-26.52,27.11-38.4-17.83,18.82,32.95,83.21,31.63,117.47Z"/>
            <g>
              <path class="cls-42" d="M667.79,456.33c-35.64,10.39-64.21,45.47-81.33,76.81-3.33.25-2.19-4.14-2.26-9.04,3.01-5.78,34.87-37.12,33.89-39.53-.95-2.33-15.09-6.87-33.89-36.15-14.71-22.91-21.65-50.42-33.89-73.42,1.32-34.26-49.46-98.65-31.63-117.47,24.4-21.95,119.04-84.86,142.32-39.53,10.2,19.85,11.48,119.82,3.39,147.97-7.19-16.72-25.58-146.56-36.15-146.84l-3.39,5.65c18.83,34.28,22.29,173.64,57.61,186.37,41.27,14.88,68.59-47.93,88.1,24.85-34.21-.74-72.75,1.8-102.79,20.33Z"/>
              <path class="cls-49" d="M528.86,262.05c5.5-1.53,7,4.74,10.17,10.17,12.83,21.95,61.02,147.75,90.36,192.02,2.8,30.38-47.22-74.37-58.74-99.4-15.31-33.29-30.47-67.87-41.79-102.79Z"/>
              <path class="cls-49" d="M569.52,243.98q45.75,98.83,91.49,197.67l-3.39,5.65c-34.39-64.84-59.07-134.19-91.49-199.93l3.39-3.39Z"/>
            </g>
          </g>
          <g>
            <path class="cls-35" d="M839.48,467.63c15.28,10.46,23.61,21.27,36.15,33.89,7.09,56.9-2.7,83.14-20.33,133.29-36.23,35.23-133.38,62.37-182.98,70.03q27.11-129.9,54.22-259.79c46.31-7.96,73.64-4.31,112.95,22.59Z"/>
            <path class="cls-54" d="M848.51,727.42v2.26c-41.57-21.7-71.34-23.74-115.21-6.78-22.58,8.73-42.13,23.04-58.74,40.66-11.39-.34-13.93,22.47-36.15-15.81-2.6-4.48,10.78-14.47-31.63-38.4,22.87.67,42.94-1.03,65.51-4.52,49.61-7.66,146.76-34.8,182.98-70.03-9.34,26.57-16.92,52.96-36.15,75.68q14.68,8.47,29.37,16.94Z"/>
            <path class="cls-40" d="M925.32,548.95l2.26,33.89c-3.73.79-4.55-1.5-9.04,3.39-3.73,4.06-24.5,60.18-45.18,100.53-6.87,13.39-13.25,31.39-24.85,40.66q-14.68-8.47-29.37-16.94c19.23-22.72,26.8-49.11,36.15-75.68,17.63-50.15,27.42-76.39,20.33-133.29,25.42,25.6,36.75,46.1,39.53,47.44.46.22,1.56-1.06,10.17,0Z"/>
            <g>
              <path class="cls-42" d="M672.31,704.83c-22.57,3.49-42.64,5.19-65.51,4.52-20.89-.61-40.16-6.15-60.99-6.78,11.03-80.7,37.99-173.6,101.66-228.17,24.8-12.54,51.46-24.62,79.07-29.37q-27.11,129.9-54.22,259.79Z"/>
              <path class="cls-29" d="M641.81,494.74c35.86,1.6-2,36.16-12.42,57.61-17.03,35.04-26.29,79.92-46.31,89.23-15.12-5.42,22.88-132.71,58.74-146.84Z"/>
            </g>
            <path class="cls-40" d="M674.57,763.57c-6.31,6.69-28.39,36.03-31.63,42.92-16.81-.98-27.9-7.18-36.15-22.59-12.78-23.89,1.33-10,31.63-36.15,22.22,38.29,24.75,15.47,36.15,15.81Z"/>
          </g>
        </g>
        <g>
          <g>
            <path class="cls-6" d="M927.58,811.01c7.28,17.82,9.41,39.68,11.3,58.74,3.31,33.44,3.67,66.33-2.26,99.4-20.38.69-40.56,1.77-60.99,2.26q-39.53-1.69-79.07-3.39c25.48-47.05,42.65-97.59,51.96-150.23,14.11,9.28,25.24,24.52,37.27,36.15,4.21-18.47,12.45-44.68,21.46-60.99,1.95-3.54,4.42-1.41,4.52-4.52,3.36,5.05,15.29,21.31,15.81,22.59Z"/>
            <g>
              <path class="cls-15" d="M733.3,722.9c-15.56,16.02-78.25,46.35-62.12,72.29,67.95-81.54,167.99-81.6,236.07-2.26-9.01,16.31-17.25,42.53-21.46,60.99-12.04-11.62-23.17-26.87-37.27-36.15-32.98-21.69-80.2-31.03-116.34-11.3-11.35,6.2-34.07,37.05-39.53,36.15-1.11-.18-16.98-8.1-21.46-6.78-1.46.43-19.83,22.64-7.91,24.85-16.72-2.79-29.46-10.88-31.63-11.3,1.22-10.69,7.2-34.22,11.3-42.92,3.24-6.89,25.32-36.23,31.63-42.92,16.61-17.62,36.15-31.93,58.74-40.66Z"/>
              <path class="cls-51" d="M848.51,729.68c26.78,13.98,46.55,33.66,63.25,58.74-.1,3.11-2.57.98-4.52,4.52-68.09-79.35-168.12-79.28-236.07,2.26-16.13-25.94,46.57-56.27,62.12-72.29,43.87-16.96,73.65-14.93,115.21,6.78Z"/>
              <path class="cls-57" d="M692.64,842.63c-.15,34.2-26,18.63-29.37,18.07-11.92-2.21,6.45-24.42,7.91-24.85,4.48-1.32,20.35,6.59,21.46,6.78Z"/>
            </g>
          </g>
          <g>
            <path class="cls-35" d="M715.23,971.4c-.91,0-2.57,2.41-18.07,2.26,1.71-8.01-8.96-2.35-11.3-5.65-2.71-3.83,3.37-64.19-3.39-93.75,32.5,45.79,61.39,57.96,32.76,97.14Z"/>
            <g>
              <path class="cls-52" d="M848.51,817.78c-9.31,52.64-26.48,103.18-51.96,150.23q39.53,1.69,79.07,3.39c-53.57,1.27-106.84.32-160.39,0,28.64-39.18-.26-51.35-32.76-97.14,6.76,29.56.68,89.92,3.39,93.75,2.34,3.3,13.01-2.37,11.3,5.65-49.3-.48-99.93-1.5-149.1-5.65-3.65-60.78,2.78-134.28,83.59-118.6,2.16.42,14.91,8.51,31.63,11.3,3.36.56,29.22,16.13,29.37-18.07,5.47.91,28.19-29.95,39.53-36.15,36.14-19.73,83.36-10.4,116.34,11.3Z"/>
              <path class="cls-8" d="M616.96,903.63l12.42,3.39c-7.87,59.01-75.82,35.62-12.42-3.39Z"/>
              <path class="cls-3" d="M738.95,847.15l10.17,5.65c2.92,34.3-44.52,10.53-10.17-5.65Z"/>
            </g>
          </g>
        </g>
        <g>
          <path class="cls-32" d="M959.21,388.56c-2.82,6.69-6.53,13.9-9.04,20.33-17.1,8.37-102.52,39.91-108.44,49.7-.24.4-1.73,6.38-2.26,9.04-39.31-26.9-66.64-30.55-112.95-22.59-27.6,4.74-54.27,16.82-79.07,29.37,3.14-2.69,19.17-17.36,20.33-18.07,30.04-18.53,68.58-21.07,102.79-20.33-19.51-72.78-46.83-9.97-88.1-24.85-35.31-12.73-38.77-152.09-57.61-186.37l3.39-5.65c10.56.28,28.96,130.12,36.15,146.84,8.09-28.15,6.81-128.12-3.39-147.97-23.28-45.32-117.92,17.58-142.32,39.53-13.21,11.89-21.84,21.01-27.11,38.4-7.38,24.35,9.42,11.73,29.37,44.05,6.22,10.07,31.53,82.43,45.18,114.08-39.05-32.75-106.01-43.39-141.19,0-13.56,16.73-11.17,33.01-16.94,38.4-7.65-3.66-19.49-3.48-27.11,0-5.54,2.53-14.84,19.49-15.81,20.33-3.02,2.63-6.93,6.71-11.3,6.78-55.05-25.58-69.38-110.58-137.8-121.99-3.66-.61-23.04-3.54-24.85-1.13,47.32,74.73,80.84,157.01,124.25,233.81,9.25,16.37,26.11,48.97,36.15,60.99,6.46,7.75,10.61,15.86,40.66,4.52-4.99,11.24,27.3.62,33.89,0,18.89-1.77,37.51-3.63,56.48-2.26,12.51.9,25.22,7.42,38.4,4.52.05.25,3.1-.81,2.26,4.52-48.81-1.69-96.1-4.19-144.58,4.52-21.91,3.93-75.16,12.4-67.77,42.92-8.57-2.79-5.61-1.58-10.17,6.78-19.82-22.13,29.5-37.26-10.17-45.18v-2.26c3.73-.44.56-3.48,4.52-6.78.44-.37,1.74.35,2.26,0,13.51,25.61,15.91,12.79,31.63,6.78,3.88-1.48,21.56-3.48,22.59-7.91-11.05-15.4-20.23-32.01-29.37-48.57-32.23-58.38-124.07-243.15-133.29-254.15-7.08-8.44-23.69-13.67-32.76-21.46-40.13-34.47-115.25-115-136.67-90.36-3.09.42-6.27,6.57-6.78,9.04-3.85,18.64,7.3,102.07,11.3,126.51,1.51,9.25,11.35,70.67,14.68,72.29,2.76,1.34,10.69-5.47,12.42,1.13,1.5,5.68-24.42,37.64-24.85,40.66-1.31,9.24,14.64,28.36,20.33,37.27,36.09,56.47,82.44,106.91,119.73,162.65-.33.18,1.37,3.51-3.39,6.78-.17.12-2.31-3.13-3.39-2.26-41.39-57.49-84.98-113.69-125.38-171.69-13.47,16.38-21.28,24.39-14.68,46.31,6.01,19.97,98.62,148.83,99.4,158.14.25,3.02-9.51,25.95-2.26,59.87-6.75,22.41,1.04-3.75-15.81,12.42,37.08,29.72,10.18,84.84,23.72,91.49,10.56,5.18,139.81,20.24,163.78,22.59,14.25,1.4,35.15.93,42.92,2.26.5.09,6.83,4.3,9.04,4.52l-5.65,4.52c-71.47-6.91-144.52-11.65-215.74-27.11.5-10.46-1.66-34.47-15.81-31.63-.05-4.7,5.01-27.52,2.26-39.53-.58-2.52-29.96-34.48,2.26-38.4-9.58-30.27-.91-56.31-2.26-63.25-1.78-9.17-95.43-135.32-99.4-158.14-5.3-30.46,20.03-49.08,20.33-51.96.37-3.55-12.07-12.61-9.04-29.37.59-3.24,13.34-18.09,13.55-22.59.26-5.53-19.18-80.64-22.59-108.44C-1.36,323.59-14.66,253.96,47.67,271.09c18.1,4.97,84.76,70.98,111.82,90.36,14.91,10.68,9.09,13.69,36.15,22.59-2.98,13.84,27.19.99,62.12,27.11,22.44,16.78,75.14,103.61,94.88,103.92,9.68.15,22.2-27.28,29.37-29.37,14.56-4.23,24.29,13.7,32.76-24.85,30-44.14,82.17-51.15,128.77-28.24-27.13-119.42-65.81-115.05-67.77-121.99-10.03-35.52,110.75-133.45,170.56-116.34,57.77,16.53,22.59,176.47,23.72,186.37,4.82,42.24,67.01,8.35,71.16,7.91,28.35-2.99,32.5,33.68,45.18,42.92,1.97,1.43,42.75,18.23,45.18,18.07,7.06-.45,111.76-52.89,127.64-60.99Z"/>
          <path class="cls-5" d="M1363.58,914.92c-.35-6.96,6.2-12.59-2.26-15.81,31.61-81.9-6.27-134-11.3-164.91-3.34-20.56,2.83-51.14-9.04-90.36,12.53,5.02,1.59-8.74,4.52-13.55,27.79,84.9,12.52,88.76,18.07,116.34,1.74,8.65,50.7,73.7,0,168.3Z"/>
          <path class="cls-35" d="M929.84,476.66c-5.65,18.63-14.56,36.57-15.81,56.48-4.97-1.6-36.93-56.26-72.29-74.55,5.91-9.79,91.34-41.33,108.44-49.7-8.5,21.78-13.55,45.44-20.33,67.77Z"/>
          <path class="cls-59" d="M344.74,808.75c-13.44,32.87,6.04,106.63-4.52,158.14-2.2-.22-8.54-4.43-9.04-4.52,8.68-40.15-4.12-122.53,0-149.1,1.01-6.52,2.32-2.77,4.52-6.78,5.37,2.26,6.83,1.71,9.04,2.26Z"/>
          <g>
            <path class="cls-61" d="M584.2,501.51c.6,7.38-.1,15.15,0,22.59.07,4.9-1.07,9.28,2.26,9.04-9.59,35.8-71.39,134.3-65.51,164.91-13.18,2.91-25.9-3.62-38.4-4.52,1.52.02,4.12.55,4.52-1.13,5.38-22.59-.48-90.46-6.78-117.47,45.15-17.94,41.38,98.88,47.44,33.89,8.96-96.04-61.96-52.9-63.25-60.99,45.06-7.97,35.82-52.05,119.73-46.31Z"/>
            <path class="cls-24" d="M667.79,456.33c-1.16.71-17.19,15.38-20.33,18.07-63.67,54.56-90.63,147.47-101.66,228.17-1.47-.04-3.29.04-4.52,0-6.01-.18-12.06.21-18.07,0,.84-5.33-2.21-4.27-2.26-4.52-5.88-30.61,55.92-129.12,65.51-164.91,17.12-31.34,45.69-66.42,81.33-76.81Z"/>
            <path class="cls-63" d="M426.07,695.79c-6.59.62-38.88,11.24-33.89,0q3.39-1.69,6.78-3.39c-16.2-18.24-42.44-60.62-49.7-82.46-9.14-27.49-15.41-61.02,4.52-85.84-16.06,81.96,13.46,117.01,72.29,171.69Z"/>
            <g>
              <path class="cls-9" d="M566.13,454.07c3.14,7.28,15.22,12.57,18.07,47.44-83.91-5.74-74.67,38.34-119.73,46.31,1.29,8.09,72.21-35.05,63.25,60.99-6.06,64.99-2.29-51.82-47.44-33.89,6.3,27.02,12.15,94.88,6.78,117.47-.4,1.68-3,1.15-4.52,1.13-18.97-1.37-37.59.49-56.48,2.26-58.83-54.68-88.35-89.73-72.29-171.69.27-1.38-.13-3.05,0-4.52,4.37-.07,8.27-4.15,11.3-6.78,2.4-.46,5.55-.23,4.52,3.39-1.91,6.66-45.27,68.43,33.89,60.99q-16.94-25.98-33.89-51.96l13.55-25.98c32.15,38.58,28.56,26.17,24.85-6.78,5.77-5.4,3.38-21.67,16.94-38.4,35.18-43.39,102.14-32.75,141.19,0Z"/>
              <path class="cls-25" d="M383.15,499.26l-13.55,25.98q16.94,25.98,33.89,51.96c-79.16,7.44-35.79-54.33-33.89-60.99,1.04-3.62-2.11-3.85-4.52-3.39.97-.84,10.27-17.8,15.81-20.33-.41,2.38.86,5.09,2.26,6.78Z"/>
              <path class="cls-34" d="M408,492.48c3.71,32.95,7.3,45.36-24.85,6.78-1.4-1.68-2.67-4.4-2.26-6.78,7.62-3.48,19.46-3.66,27.11,0Z"/>
              <path class="cls-34" d="M488.19,436c29.67-2.56,44.91,7.69,66.64,25.98-1.57,4.52-49.7-22.33-93.75-12.42-10.09-6.21,20.64-13,27.11-13.55Z"/>
              <path class="cls-61" d="M415.9,506.03q19.2,29.37,38.4,58.74c-24.32-9.99-37.94-33.17-38.4-58.74Z"/>
            </g>
          </g>
          <g>
            <path class="cls-42" d="M19.44,298.2c-2.25,39.3,12.74,76.97,13.55,116.34,21.77,17.67,18.53-22.89,18.07-39.53,49.27-17.39,21.54-8.34,22.59-40.66,57.26,113.87,121.15,224.66,189.76,332.08-2.38-.14-4.79.84-6.78-1.13-8.21-8.13-61.13-106.46-77.94-127.64-8.13,18.98-23.29,24.22-23.72,25.98-.77,3.15,29.01,47.16,33.89,55.35-26.44-31.89-122.62-186.35-131.03-195.41-9.01-9.71-9.01-3.07-4.52,9.04,6.83,18.38,169.36,244.56,180.73,269.96,10.02,22.39-16.88-1.68-65.51,33.89-.59.31-1.68-.32-2.26,0-37.29-55.74-83.64-106.18-119.73-162.65l9.04,1.13c-11-55.27.36-68.63,0-72.29-1.53-15.68-10.94-14.79-11.3-15.81-.24-.68,8.96-10.46,9.04-11.3.28-3.16-20.15-55.69-29.37-53.09-4-24.44-15.14-107.87-11.3-126.51,2.42.4,2.91,3.09,6.78,2.26Z"/>
            <path class="cls-42" d="M159.5,740.98c-25.66,20.82-34.27,63.88-42.92,92.62-7.25-33.92,2.51-56.84,2.26-59.87-.78-9.31-93.39-138.16-99.4-158.14-6.6-21.92,1.21-29.93,14.68-46.31,40.4,58,83.99,114.2,125.38,171.69Z"/>
            <path class="cls-62" d="M215.97,397.6c11.9,16.58,29.84,35.43,40.66,51.96-.17,5.74,6.08,9.95,9.04,13.55,28.43,47.41,48.17,102.89,70.03,153.62-27.77-7.29-13.42,4.23-20.33,13.55-43.41-76.81-76.93-159.09-124.25-233.81,1.81-2.41,21.19.52,24.85,1.13Z"/>
            <path class="cls-52" d="M263.42,666.43c9.1,14.25,18.33,28.47,27.11,42.92v2.26c-11.41-2.28-26.56,1.67-38.4,0-.51-.72-4.14-3.5-11.3-13.55-18.33-25.76-35.77-51.88-51.96-79.07-4.88-8.19-34.65-52.19-33.89-55.35.43-1.75,15.59-7,23.72-25.98,16.81,21.18,69.73,119.51,77.94,127.64,1.98,1.97,4.4.99,6.78,1.13Z"/>
            <path class="cls-62" d="M353.78,519.59c-.13,1.46.27,3.14,0,4.52-19.93,24.82-13.66,58.35-4.52,85.84l-9.04,6.78c-13.48-33.89-54.92-129.7-74.55-153.62-4.39-7.33-6.28-9.35-9.04-13.55-10.82-16.53-28.76-35.38-40.66-51.96,68.42,11.41,82.75,96.41,137.8,121.99Z"/>
            <path class="cls-42" d="M322.15,652.87h-4.52c-20.68-24.73-101.83-201.14-110.69-208.96-7.2-6.36-16.11,4.73-23.72,1.13-3.53-1.67-30.42-64.14-45.18-58.74-5.3,20.75-13.97,17.35-14.68,19.2-1.62,4.18,20.47,27.58,13.55,32.76-20.18-35.48-39.1-71.68-60.99-106.18.77-.49,11.65.91,15.81-5.65-18.21-17.21-46.81-49.41-72.29-39.53,21.42-24.64,96.55,55.9,136.67,90.36,9.07,7.79,25.68,13.02,32.76,21.46,9.22,11,101.05,195.77,133.29,254.15Z"/>
            <path class="cls-62" d="M317.63,652.87h4.52c9.14,16.56,18.31,33.17,29.37,48.57-1.03,4.43-18.71,6.42-22.59,7.91-15.98-13.29-9.82-21.69-31.63-6.78-.52.35-1.82-.37-2.26,0-17.02-29.27-36.48-57.01-54.22-85.84,7.42-4.02-11.01-20.13-15.81-35.02,1.55-3.94,20.5-3.9,21.46-3.39,6.02,3.17,70.12,137.1,71.16,74.55Z"/>
            <path class="cls-5" d="M136.91,438.26c33.99,59.77,67.89,119.9,103.92,178.47,17.74,28.84,37.2,56.57,54.22,85.84-3.95,3.3-.79,6.34-4.52,6.78-8.78-14.45-18.01-28.67-27.11-42.92-68.61-107.43-132.5-218.21-189.76-332.08-.24-2.75,1.92-2.04,2.26-2.26,21.9,34.49,40.82,70.7,60.99,106.18Z"/>
            <path class="cls-2" d="M75.91,332.08c-.33.21-2.5-.49-2.26,2.26-1.05,32.33,26.68,23.27-22.59,40.66-.22-7.77-7.09-64.44-9.04-68.9-8.38-19.17-19.64-8.54-22.59-7.91-3.87.83-4.36-1.86-6.78-2.26.51-2.46,3.69-8.61,6.78-9.04,25.48-9.88,54.08,22.33,72.29,39.53-4.16,6.55-15.04,5.15-15.81,5.65Z"/>
            <path class="cls-42" d="M46.54,573.8c-5.7-8.91-21.64-28.04-20.33-37.27.43-3.02,26.35-34.99,24.85-40.66-1.74-6.6-9.66.21-12.42-1.13-3.34-1.62-13.17-63.04-14.68-72.29,9.22-2.6,29.65,49.93,29.37,53.09-.07.83-9.27,10.61-9.04,11.3.36,1.02,9.77.13,11.3,15.81.36,3.66-11,17.02,0,72.29l-9.04-1.13Z"/>
            <path class="cls-35" d="M392.18,695.79c-30.06,11.34-34.2,3.23-40.66-4.52,26.31-6.52,11.37-13.82-9.04-60.99,4.45-.6-.86-10.05-2.26-13.55l9.04-6.78c7.26,21.83,33.5,64.22,49.7,82.46q-3.39,1.69-6.78,3.39Z"/>
            <path class="cls-35" d="M335.71,616.73c1.86,4.32,4.8,8.98,6.78,13.55,20.41,47.17,35.34,54.47,9.04,60.99-10.03-12.03-26.89-44.62-36.15-60.99,6.91-9.33-7.44-20.84,20.33-13.55Z"/>
            <path class="cls-54" d="M328.93,709.35c-15.72,6.02-18.11,18.84-31.63-6.78,21.81-14.91,15.65-6.52,31.63,6.78Z"/>
            <path class="cls-36" d="M51.06,375.01c.46,16.65,3.7,57.2-18.07,39.53-.81-39.38-15.8-77.04-13.55-116.34,2.95-.63,14.21-11.27,22.59,7.91,1.95,4.46,8.82,61.13,9.04,68.9Z"/>
            <path class="cls-5" d="M188.87,618.99c16.19,27.19,33.63,53.3,51.96,79.07l-6.78,4.52c-11.37-25.4-173.9-251.58-180.73-269.96-4.49-12.1-4.49-18.75,4.52-9.04,8.4,9.06,104.59,163.52,131.03,195.41Z"/>
            <path class="cls-40" d="M340.22,616.73c1.4,3.51,6.71,12.96,2.26,13.55-1.98-4.57-4.92-9.24-6.78-13.55-21.87-50.72-41.6-106.21-70.03-153.62,19.63,23.92,61.07,119.73,74.55,153.62Z"/>
            <path class="cls-40" d="M265.67,463.11c-2.96-3.6-9.21-7.82-9.04-13.55,2.75,4.2,4.64,6.23,9.04,13.55Z"/>
            <path class="cls-52" d="M317.63,652.87c-1.04,62.55-65.15-71.38-71.16-74.55-.96-.51-19.91-.55-21.46,3.39,4.8,14.89,23.24,31,15.81,35.02-36.03-58.57-69.93-118.69-103.92-178.47,6.92-5.17-15.18-28.57-13.55-32.76.72-1.85,9.39,1.55,14.68-19.2,14.76-5.41,41.66,57.07,45.18,58.74,7.61,3.6,16.52-7.49,23.72-1.13,8.86,7.83,90.02,184.24,110.69,208.96Z"/>
          </g>
          <g>
            <path class="cls-16" d="M1352.29,406.63h-9.04c-8.18-12.84-28.28-34.19-42.92-38.4-10.99-3.17-16.15-2.41-27.11,0l-2.26-6.78c2.22-.82,7.54,1.4,9.04-1.13,3.91-6.62,5.2-112.53-58.74-127.64-25.76-6.09-34.79-.26-54.22,15.81-33.91-7.96-66.79,2.28-81.33,36.15-10.92,25.44-2.25,16.99,4.52,36.15,4.24,12.01,12.46,37.73,15.81,45.18-6.33-4.46-4.36.86-4.52,6.78-4.64-19.67-19.25-45.47-31.63-60.99-25.82-32.4-43.03-44.33-70.03-4.52-9.58,14.12-23.47,47.63-31.63,65.51-4.09.03-1.5-6.72-2.26-13.55,19.69-22.5,31.41-84.55,68.9-81.33,11.62,1,22.25,15.34,21.46,4.52,5.54,3.98,9.94,8.75,14.68,13.55,25.56-80.33,85.06-56.97,94.88-58.74,5.37-.96,36.57-39.03,88.1,4.52,48.31,40.82,34.59,110.61,37.27,116.34,2.82,6.02,26.72-3.24,60.99,48.57Z"/>
            <path class="cls-58" d="M1352.29,406.63c73.02,110.37-15.45,189.27-15.81,204.45-.03,1.06,6.04,10.04,9.04,19.2-2.93,4.81,8.01,18.57-4.52,13.55-.5-1.65-12.3-29.23-13.55-31.63-3.98-10.2,2.37-7.1,4.52-11.3,3.27-6.4,5.68-13.75,9.04-20.33,15.47-30.33,30.64-59.57,29.37-94.88-.69-19.27-16.75-62.81-27.11-79.07h9.04Z"/>
            <path class="cls-9" d="M1270.96,361.45c-32.84,12.08-45.42,7.8-51.96,71.16,11.97-27.89,21.18-57.12,54.22-64.38,10.96-2.41,16.12-3.17,27.11,0-16.5,5.05,8.14,20.02,15.81,37.27,5.33,11.98,12.6,54.61,13.55,71.16-29.96-19.37-84.68-7.47-92.62,31.63-10.17-6.31-44.58-27.45-49.7-31.63-30.33-24.79-59.72-64.11-76.81-99.4-1.65-3.4-2.85-7.58-4.52-11.3-3.35-7.45-11.57-33.17-15.81-45.18,37.42,8.4,51.77,24.94,94.88,18.07,55.65-8.87,85.27-67.38,36.15-106.18,63.94,15.11,62.65,121.02,58.74,127.64-1.49,2.53-6.81.31-9.04,1.13Z"/>
            <path class="cls-50" d="M1185.12,338.86c-43.11,6.87-57.46-9.67-94.88-18.07-6.76-19.16-15.44-10.7-4.52-36.15,9.92,35.51,7.28-17.18,48.57-22.59,39.69-5.2-24.06,11.18-14.68,50.83,45.2,23.83,108.76-28.18,63.25-57.61,39.88-28.68,64.73,28.95,19.2,67.77-4.33,3.69-17.83,2.47-16.94,15.81Z"/>
            <path class="cls-37" d="M1167.04,248.5c1.03.24,14.65,6.02,15.81,6.78,45.51,29.43-18.06,81.43-63.25,57.61-9.37-39.65,54.38-56.03,14.68-50.83-41.29,5.41-38.65,58.1-48.57,22.59,14.54-33.86,47.42-44.11,81.33-36.15Z"/>
            <path class="cls-9" d="M1343.25,406.63c10.36,16.26,26.41,59.8,27.11,79.07-31.57,27.37-23.45,2.1-40.66-9.04-.96-16.55-8.23-59.18-13.55-71.16-7.67-17.25-32.32-32.23-15.81-37.27,14.65,4.22,34.74,25.56,42.92,38.4Z"/>
            <path class="cls-34" d="M1221.26,232.68c49.12,38.8,19.51,97.3-36.15,106.18-.89-13.35,12.61-12.12,16.94-15.81,45.53-38.82,20.68-96.45-19.2-67.77-1.17-.76-14.79-6.54-15.81-6.78,19.43-16.08,28.45-21.9,54.22-15.81Z"/>
            <path class="cls-24" d="M1273.22,368.23c-33.04,7.27-42.25,36.49-54.22,64.38,6.54-63.36,19.12-59.08,51.96-71.16l2.26,6.78Z"/>
            <path class="cls-61" d="M1329.7,476.66c17.21,11.13,9.09,36.41,40.66,9.04,1.27,35.32-13.89,64.55-29.37,94.88-41.44-51.51-70.54-49.53-74.55-51.96-10.11-6.14-19.44-14.18-29.37-20.33,7.95-39.1,62.66-51,92.62-31.63Z"/>
            <path class="cls-61" d="M1340.99,580.58c-3.36,6.58-5.76,13.93-9.04,20.33-17.57-28.51-39.96-50.96-65.51-72.29,4.01,2.43,33.11.45,74.55,51.96Z"/>
            <g>
              <path class="cls-46" d="M1106.05,365.97c1.67,3.72,2.87,7.89,4.52,11.3l-4.52-1.13c4.64,61.89,10.46,132.64,6.78,194.28-.07,1.18-4.99,7.08-6.78,22.59-1.02,8.83,4.84,8.24,4.52,10.17-.24,1.43.26,3.09,0,4.52-.16.85-5.64,11.02-6.78,15.81-.39-66.35,10.15-132.42,2.26-198.8.21-13.64-1.53-39.26-4.52-51.96.16-5.92-1.81-11.24,4.52-6.78Z"/>
              <path class="cls-61" d="M1110.57,377.27c17.09,35.29,46.48,74.61,76.81,99.4-14.06,22.66-50.56,65.73-60.99,86.97-2.35,4.78,2.39,5.37,2.26,5.65-5.44,11.66-10.41,23.43-18.07,33.89.32-1.93-5.54-1.34-4.52-10.17,1.79-15.51,6.71-21.41,6.78-22.59,3.68-61.64-2.14-132.39-6.78-194.28l4.52,1.13Z"/>
            </g>
          </g>
          <g>
            <path class="cls-53" d="M1006.65,311.75c-12.71,24.57-40.79,121.92-63.25,161.52l2.26,5.65c-1.98,2.57-2.88,9.9-7.91,9.04q-3.95-5.65-7.91-11.3c6.78-22.33,11.83-45.99,20.33-67.77,2.51-6.43,6.22-13.64,9.04-20.33.98-2.32,5.25-7.51,9.04-15.81,8.15-17.88,22.05-51.39,31.63-65.51l6.78,4.52Z"/>
            <path class="cls-42" d="M1069.9,311.75c18.32,84.14-14.47,161.38-22.59,221.39-25.35-2.12-124.5,2.84-133.29,0,1.26-19.91,10.16-37.85,15.81-56.48q3.95,5.65,7.91,11.3c5.03.87,5.93-6.47,7.91-9.04,23.58-30.57,86.31-168.82,83.59-181.86-8.46-15.16-18.72,7.2-22.59,14.68l-6.78-4.52c27-39.82,44.21-27.88,70.03,4.52Z"/>
            <path class="cls-35" d="M1101.53,372.75c2.99,12.7,4.72,38.32,4.52,51.96-.96,63.39-31.27,147.52-40.66,212.35-4.44-10.84-21.82-47.65-22.59-54.22-.2-1.69,1.82-28.83,2.26-33.89.4-4.61,1.6-10.94,2.26-15.81,8.12-60.01,40.91-137.25,22.59-221.39,12.38,15.53,26.99,41.32,31.63,60.99Z"/>
            <path class="cls-26" d="M945.66,478.92l-2.26-5.65c22.46-39.61,50.54-136.95,63.25-161.52,3.87-7.49,14.13-29.84,22.59-14.68,2.72,13.04-60,151.28-83.59,181.86Z"/>
            <path class="cls-40" d="M1103.79,623.5c-4.57,19.33-11.66,37.74-18.07,56.48-5.43-15.13-14.31-28.24-20.33-42.92,9.39-64.83,39.7-148.96,40.66-212.35,7.89,66.38-2.65,132.45-2.26,198.8Z"/>
          </g>
          <g>
            <path class="cls-62" d="M1327.44,612.21c1.26,2.4,13.06,29.98,13.55,31.63,11.87,39.22,5.69,69.8,9.04,90.36-5.47-3.75-10.8-4.17-11.3-4.52-.39-.28-4.4-4.64-6.78-6.78-25.81-23.16-28.09-36.65-70.03-45.18,31.21-28.89,30.07-92.01,11.3-126.51,17.76,10.03,45.14,43.71,54.22,60.99Z"/>
            <path class="cls-46" d="M1237.08,508.29c9.93,6.16,19.26,14.19,29.37,20.33,25.55,21.33,47.94,43.78,65.51,72.29-2.14,4.19-8.5,1.1-4.52,11.3-9.08-17.28-36.46-50.97-54.22-60.99-.32-.58.33-1.71,0-2.26-3.28-5.45-24.45-19.16-31.63-24.85-15.81-12.53-33.63-22.45-48.57-36.15-4.84-.51-22.04,24.7-25.98,29.37-14.33,16.96-26.44,33.31-38.4,51.96.13-.28-4.61-.87-2.26-5.65,10.44-21.25,46.93-64.31,60.99-86.97,5.12,4.18,39.53,25.32,49.7,31.63Z"/>
            <path class="cls-54" d="M1137.68,666.43c.53,14.14,2.22,21.19,2.26,22.59.29,9.35.41,18.01-2.26,27.11-14.69,14.52-33.56,41.31-40.66,60.99-7.2-12.61,13.68-27.61-11.3-97.14,6.41-18.74,13.5-37.14,18.07-56.48,1.13-4.79,6.62-14.97,6.78-15.81,11.68-8.32,15.76,36.71,27.11,58.74Z"/>
            <path class="cls-22" d="M1137.68,666.43c-11.35-22.03-15.43-67.06-27.11-58.74.26-1.42-.24-3.08,0-4.52,7.67-10.46,12.64-22.22,18.07-33.89,11.96-18.65,24.07-35,38.4-51.96l6.78,3.39c-39.15,41.55-38.12,92.48-36.15,145.71Z"/>
            <path class="cls-14" d="M1273.22,548.95c.33.55-.32,1.67,0,2.26,18.78,34.49,19.92,97.62-11.3,126.51-26.72-5.43-55.56-3.55-81.33,6.78,28.69-46.43,55.82-94.99,92.62-135.54Z"/>
            <path class="cls-14" d="M1241.59,524.1q-50.83,82.46-101.66,164.91c-.04-1.4-1.73-8.45-2.26-22.59-1.98-53.23-3-104.16,36.15-145.71l-6.78-3.39c3.94-4.67,21.14-29.87,25.98-29.37,14.94,13.69,32.76,23.61,48.57,36.15Z"/>
            <path class="cls-35" d="M1273.22,548.95c-36.8,40.55-63.93,89.11-92.62,135.54-10.78,4.32-34.02,22.82-42.92,31.63,2.67-9.1,2.55-17.76,2.26-27.11q50.83-82.46,101.66-164.91c7.18,5.69,28.35,19.4,31.63,24.85Z"/>
          </g>
          <g>
            <path class="cls-1" d="M1350.03,734.2c5.02,30.91,42.91,83.02,11.3,164.91-.57,1.46-14.73,25.97-15.81,27.11-14.5,15.27-108.2,24.39-133.29,27.11,47.94-71.38,86.84-147.52,126.51-223.65.5.35,5.82.77,11.3,4.52Z"/>
            <path class="cls-48" d="M1331.96,722.9c2.38,2.13,6.39,6.5,6.78,6.78-39.67,76.13-78.57,152.27-126.51,223.65-27.71,3-55.74,5.55-83.59,6.78-.48-25.04,20.62-45.61,4.52-70.03,36.33-53.49,77.82-102.44,114.08-155.88-47.51,47.9-104.13,111.25-141.19,167.17-2.87.17-2.81-3.57-2.26-5.65,17.48-66.17,57.57-157.08,106.18-206.71,51.93-9.55,79.83,7.59,121.99,33.89Z"/>
            <path class="cls-59" d="M1133.16,890.07c-12.16,17.91-24.9,35.72-36.15,54.22-7.79,12.81,4.29,20.75-15.81,13.55.31-1.17,1.82-17.87,2.26-22.59,11.69-8.15,15.32-22.92,22.59-33.89,37.07-55.92,93.69-119.28,141.19-167.17-36.27,53.43-77.75,102.38-114.08,155.88Z"/>
            <path class="cls-1" d="M1128.64,960.11c-16.3.72-36.16,11.83-31.63-15.81,11.25-18.5,23.98-36.31,36.15-54.22,16.1,24.42-5,44.99-4.52,70.03Z"/>
            <path class="cls-59" d="M1261.93,677.72c41.94,8.53,44.22,22.02,70.03,45.18-42.16-26.29-70.06-43.43-121.99-33.89-54.38,10-75.76,46.39-101.66,88.1-6.37-.09-5.42,10.28-11.3,0,7.11-19.68,25.98-46.47,40.66-60.99,8.9-8.8,32.14-27.3,42.92-31.63,25.77-10.33,54.6-12.21,81.33-6.78Z"/>
            <path class="cls-1" d="M1209.97,689.02c-48.61,49.63-88.7,140.54-106.18,206.71-.55,2.07-.61,5.82,2.26,5.65-7.27,10.96-10.9,25.74-22.59,33.89,3.21-34.27-2.39-86.94,0-124.25,13.1-2.64,17.65-22.28,24.85-33.89,25.9-41.72,47.28-78.11,101.66-88.1Z"/>
          </g>
        </g>
        <g>
          <g>
            <path class="cls-5" d="M642.94,806.49c-4.09,8.7-10.07,32.24-11.3,42.92-80.81-15.68-87.24,57.82-83.59,118.6,49.17,4.15,99.8,5.16,149.1,5.65,15.5.15,17.16-2.26,18.07-2.26,53.56.32,106.82,1.27,160.39,0,20.44-.49,40.61-1.57,60.99-2.26,22.68-.77,45.07-1.04,67.77-2.26,11.28-.61,12.87-2.22,13.55-2.26,13.28-.76,59.85,6.02,63.25-6.78,20.1,7.19,8.02-.74,15.81-13.55-4.53,27.64,15.33,16.53,31.63,15.81,27.84-1.23,55.88-3.77,83.59-6.78,25.08-2.72,118.79-11.84,133.29-27.11-4.93,10.28,5.4,7.97,6.78,15.81-12.88,2.5-25.47,6.78-38.4,9.04-3.77.66-7.72,1.69-11.3,2.26-171.28,27.15-486.63,31.12-666.43,29.37-173.01-1.69-347.77-4.52-518.46-33.89-.78,21.11-2.28,42.17-3.39,63.25-2.44,46.57-2.15,93.44-4.52,140.06-7.33-40.17.48-82.35,2.26-123.12,1.16-26.5.39-52.25,2.26-81.33.11-1.72,4.5-3.11,4.52-3.39,71.22,15.46,144.28,20.19,215.74,27.11l5.65-4.52c10.56-51.5-8.92-125.27,4.52-158.14,53.37,13.15,208.74,12.18,264.31-7.91,0-4.51-4.39-7.47-4.52-7.91-.41-1.38-.15-2.7-2.26-6.78l4.52-2.26c8.24,15.41,19.33,21.61,36.15,22.59Z"/>
            <path class="cls-3" d="M462.21,840.38c63.76,3.69,33.55,85.22,40.66,128.77-19.18.09-154.45,1.16-158.14-6.78,37.88.44,18.01-12.93,18.07-14.68.03-.92,4.59-1.64,4.52-9.04-.19-18.67-3.25-44.48-4.52-64.38,27.1-20.72,65.25-35.86,99.4-33.89Z"/>
            <path class="cls-36" d="M502.88,969.14c-7.11-43.55,23.09-125.08-40.66-128.77q-2.26-7.91-4.52-15.81c64.15-.24,123.4-9.61,129.9-9.04,15.92,1.4,11.17,26.77,10.17,28.24-4.35,6.32-64.73-12.92-58.74,124.25-3.61,8.13-29.73,1.1-36.15,1.13Z"/>
            <path class="cls-39" d="M457.7,824.56q2.26,7.91,4.52,15.81c-34.15-1.98-72.3,13.16-99.4,33.89-1.14-17.85-5.94-36.21-2.26-54.22,30.85.22,62.54,4.65,97.14,4.52Z"/>
            <path class="cls-57" d="M360.56,820.04c-3.68,18.01,1.12,36.37,2.26,54.22,1.27,19.91,4.33,45.72,4.52,64.38.07,7.4-4.48,8.12-4.52,9.04-.06,1.75,19.81,15.12-18.07,14.68v-143.45c5.37,1.28,10.37,1.09,15.81,1.13Z"/>
          </g>
          <g>
            <path class="cls-57" d="M378.63,707.09c.02,1.53.56,4.09-1.13,4.52-21.4,5.41-33.6,5.69,4.52,13.55,15.74,3.25,102.64,9.77,128.77,11.3,4.04.24,19.66,6.82,21.46,6.78,24.26,35.79-71.79,32.44-93.75,31.63-1.72-.06-.53-4.44-2.26-4.52-10.87-.5-43.45.93-49.7,0-1.81-.27-.44-4.22-2.26-4.52-7.12-1.15-23.93,1.44-42.92-9.04-9.87-5.44-44.31-47.59-19.2,4.52-3.26-2.14-10.39-7.55-11.3-11.3-7.38-30.53,45.86-38.99,67.77-42.92Z"/>
            <path class="cls-19" d="M523.21,702.57c6.01.21,12.06-.18,18.07,0,15.89,5.68,84.41,15.54,88.1,33.89-33.57-15.66-58.9.41-96.01,2.26-1.86.09-.9,4.51-1.13,4.52-1.8.04-17.42-6.54-21.46-6.78-26.12-1.53-113.02-8.05-128.77-11.3-38.12-7.87-25.92-8.14-4.52-13.55,1.69-.43,1.15-2.99,1.13-4.52,48.48-8.71,95.77-6.2,144.58-4.52Z"/>
            <path class="cls-49" d="M545.8,702.57c20.83.62,40.11,6.17,60.99,6.78,42.4,23.94,29.02,33.92,31.63,38.4-30.29,26.14-44.41,12.26-31.63,36.15l-4.52,2.26c-1.4-2.71-6.18-14.14-6.78-14.68-2.4-2.18-6.1-.79-9.04-1.13-1.7-.2-2.5-.31-2.26-2.26,11.18-3.43,48.29-16.21,45.18-31.63-3.7-18.34-72.22-28.21-88.1-33.89,1.23.04,3.04-.04,4.52,0Z"/>
            <path class="cls-27" d="M629.38,736.46c3.11,15.42-34,28.2-45.18,31.63-32.02,9.81-77.15,12.94-110.69,13.55-37.85.69-97.95-1.65-133.29-13.55-3.64-1.23-17.27-6.25-18.07-6.78-25.11-52.11,9.33-9.96,19.2-4.52,18.99,10.47,35.8,7.89,42.92,9.04,1.82.29.45,4.25,2.26,4.52,6.25.93,38.83-.5,49.7,0,1.73.08.54,4.45,2.26,4.52,21.96.82,118.01,4.17,93.75-31.63.23,0-.73-4.43,1.13-4.52,37.11-1.85,62.44-17.92,96.01-2.26Z"/>
          </g>
          <g>
            <path class="cls-19" d="M426.07,795.19c38.55.13,70.28,1.89,108.44-6.78,8.83,13.06,52.05,10.71,70.03,4.52.13.44,4.52,3.4,4.52,7.91-55.57,20.09-210.94,21.06-264.31,7.91-2.21-.54-3.66,0-9.04-2.26-1.28-.54-5.88,1.99-11.3-5.65-1.15-4.21,3.24-8.58,4.52-12.42,32.22,1.31,63.92,10.92,96.01,11.3,1.83.02.9-4.52,1.13-4.52Z"/>
            <path class="cls-13" d="M602.28,786.16c2.11,4.08,1.85,5.4,2.26,6.78-17.98,6.19-61.2,8.55-70.03-4.52,9.58-2.18,23.88-3.74,18.07-9.04,11.19-1.92,23.92-2.94,33.89-9.04,2.93.34,6.64-1.05,9.04,1.13.6.54,5.37,11.97,6.78,14.68Z"/>
            <path class="cls-5" d="M473.51,781.64l9.04,4.52c-18.4.57-40.51.93-58.74,0-17.43-.89-35.73-2.62-53.09-4.52-26.85-2.94-33.02-19.52-41.79,6.78-1.28,3.84-5.67,8.21-4.52,12.42,5.42,7.63,10.02,5.11,11.3,5.65-2.2,4.01-3.51.26-4.52,6.78-25.64,7.4-5.21-41.81,9.04-45.18,35.33,11.91,95.44,14.25,133.29,13.55Z"/>
            <path class="cls-28" d="M584.2,768.08c-.24,1.95.56,2.06,2.26,2.26-9.97,6.1-22.7,7.12-33.89,9.04-23.97,4.11-45.75,6.02-70.03,6.78l-9.04-4.52c33.55-.62,78.68-3.74,110.69-13.55Z"/>
            <path class="cls-3" d="M423.81,786.16c-4.98,7.34-.59,4.99,2.26,9.04-.23,0,.7,4.54-1.13,4.52-32.09-.38-63.79-9.98-96.01-11.3,8.78-26.3,14.94-9.71,41.79-6.78,17.36,1.9,35.66,3.63,53.09,4.52Z"/>
            <path class="cls-29" d="M534.5,788.42c-38.15,8.67-69.88,6.9-108.44,6.78-2.85-4.04-7.24-1.69-2.26-9.04,18.22.93,40.34.57,58.74,0,24.28-.75,46.06-2.67,70.03-6.78,5.81,5.3-8.49,6.86-18.07,9.04Z"/>
          </g>
        </g>
        <g>
          <path class="cls-60" d="M1363.58,914.92c7.07,140.16,2.98,281.33,11.3,421.32,5.01,84.36,32.29,256.57,27.11,323.05-2.01,25.77-24.21,119.45-31.63,154.75-3.92,18.64-6.48,50.78-11.3,65.51l-5.65-13.55c-3.84,18.27-9.2,6.8-10.17,6.78,8.81-67.92,40.56-185.31,42.92-246.24,1.85-47.8-20.51-203.91-24.85-274.48-4.44-72.25-4.91-145.6-6.78-218-1-38.58.03-179-2.26-192.02-1.38-7.84-11.71-5.53-6.78-15.81,1.08-1.14,15.25-25.64,15.81-27.11,8.46,3.23,1.91,8.85,2.26,15.81Z"/>
          <path class="cls-60" d="M118.83,944.29c-.01.28-4.41,1.67-4.52,3.39-1.87,29.07-1.1,54.83-2.26,81.33-1.78,40.77-9.59,82.95-2.26,123.12-1.46,28.62-2.91,57.23-4.52,85.84-6.47,115.28-26.21,314.54-27.11,406.63-.65,66.78,9.36,148.6,4.52,219.13l2.26,9.04c-10.46,3.69-13.12,12.6-6.78,20.33-10.97,4.14-10.58-48.05-11.3-76.81-1.44-58,3.42-116.97-4.52-175.08,13.77-236.34,43.2-493.15,40.66-728.55,14.16-2.84,16.32,21.16,15.81,31.63Z"/>
          <path class="cls-38" d="M1386.17,1626.53c-2.36,60.93-34.11,178.32-42.92,246.24-419.04-9.05-839.16,6.78-1258.3,0l-2.26-9.04c10.67-12.39,23.31-23.78,33.89-36.15,356.52-7.01,713.1-3.88,1069.67-4.52,50.15,7.46,102.28,14.46,146.84,40.66-9.98-15.89-26.74-30.13-25.98-50.83.37-9.97,45.78-183.98,49.7-193.15.9-2.11,1.93-4.28,4.52-4.52,2.32,3.49,19.72,6.7,24.85,11.3Z"/>
          <path class="cls-10" d="M1386.17,1626.53c-5.13-4.6-22.53-7.81-24.85-11.3-4.22-6.34-23.03-133.01-24.85-150.23-8.27-78.46-12.51-201.31-18.07-288.03-.1-1.5.1-3.02,0-4.52q18.07-19.2,36.15-38.4c1.87,72.4,2.33,145.75,6.78,218,4.34,70.57,26.7,226.68,24.85,274.48Z"/>
          <path class="cls-38" d="M1352.29,942.03c2.29,13.02,1.26,153.44,2.26,192.02q-18.07,19.2-36.15,38.4c-4.72-73.25-21.08-149.09-4.52-221.39,12.94-2.25,25.52-6.53,38.4-9.04Z"/>
          <path class="cls-36" d="M1302.59,953.33c-34.04,133.98-90.56,262.21-167.17,377.27-36.16,32.75-88.04,114.12-170.56,169.43-162.59,108.98-329.47,34.38-576.06,121.99-123.83,44-173.48,88.92-256.4,185.24-5.55,6.44-10.44,14.05-15.81,20.33-10.58,12.37-23.22,23.76-33.89,36.15,4.85-70.53-5.17-152.35-4.52-219.13,102.52-104.39,238.82-226.54,373.88-284.64,21.4-9.21,67.79-29.25,86.97-22.59,15.02,5.21,52.16,34.41,105.05,45.18,148.45,30.25,283.11-36.25,378.39-147.97,73.25-85.88,59.61-121.32,56.48-231.55,53.75-3.54,109.57-9.42,161.52-22.59-92.59-.47-184.53,13.29-276.74,18.07-37.7,1.96-75.23,3.28-112.95,4.52-102.92,3.38-316.75,4.3-415.67,0-23.59-1.02-46.73-4.93-70.03-6.78,66.9-11.53,136.76.23,204.45-4.52,3.42-.24,19.98-9.24,66.64-9.04,179.8,1.75,495.14-2.22,666.43-29.37Z"/>
          <path class="cls-36" d="M376.37,1145.35c4.39,9.21,19.68,19.74,29.37,20.33,20.52,69.73,72.43,127.54,135.54,162.65l-2.26,9.04c-19.18-6.66-65.57,13.38-86.97,22.59-135.06,58.1-271.35,180.25-373.88,284.64.9-92.1,20.64-291.36,27.11-406.63q4.52,99.96,9.04,199.93c3.66-12.81,5.16-26.34,6.78-39.53l4.52,5.65c29.52-77.58,148.42-224.89,220.26-258.66,30.06-14.13,15.89-2.93,30.5,0Z"/>
          <path class="cls-39" d="M121.09,1398.37c-1.61,13.19-3.11,26.72-6.78,39.53q-4.52-99.96-9.04-199.93c1.6-28.61,3.06-57.23,4.52-85.84,2.37-46.62,2.08-93.5,4.52-140.06q4.52-5.08,9.04-10.17c6.76,125.01,12.85,272.91-2.26,396.47Z"/>
          <path class="cls-56" d="M1313.88,951.07c-16.56,72.3-.2,148.13,4.52,221.39.1,1.5-.1,3.02,0,4.52-51.88,62.28-149.56,123.35-182.98,153.62,76.61-115.05,133.14-243.29,167.17-377.27,3.58-.57,7.52-1.6,11.3-2.26Z"/>
          <path class="cls-13" d="M1361.32,1615.24c-2.59.24-3.62,2.41-4.52,4.52-66.96-2.35-77.52,92.92-172.82,108.44-34.93,5.69-298.94,2.31-377.27,4.52-225.81,6.35-454.7,18.7-674.33,74.55,82.93-96.33,132.57-141.25,256.4-185.24,246.59-87.61,413.48-13.01,576.06-121.99,82.52-55.31,134.4-136.68,170.56-169.43,33.43-30.27,131.1-91.34,182.98-153.62,5.56,86.72,9.8,209.58,18.07,288.03,1.82,17.22,20.63,143.89,24.85,150.23Z"/>
          <path class="cls-56" d="M1356.81,1619.76c-3.92,9.17-49.33,183.19-49.7,193.15-.76,20.7,15.99,34.94,25.98,50.83-44.56-26.21-96.69-33.21-146.84-40.66-356.57.64-713.15-2.49-1069.67,4.52,5.37-6.28,10.27-13.89,15.81-20.33,219.64-55.85,448.52-68.2,674.33-74.55,78.33-2.2,342.33,1.17,377.27-4.52,95.3-15.52,105.86-110.79,172.82-108.44Z"/>
          <g>
            <path class="cls-44" d="M435.1,1143.09c-6.21,9.09-12.42,21.24-24.85,22.59-1.46.16-3.05.09-4.52,0-9.69-.59-24.98-11.12-29.37-20.33-5.26-11.02-10.37-87.95,1.13-97.14q28.8,1.69,57.61,3.39c.34,30.49-.46,61.01,0,91.49Z"/>
            <path class="cls-20" d="M400.09,1091.13q8.47,2.82,16.94,5.65c7.45,70.22-33.64,50.39-16.94-5.65Z"/>
          </g>
          <g>
            <path class="cls-3" d="M636.16,982.7c-46.66-.21-63.22,8.8-66.64,9.04-67.68,4.75-137.54-7.01-204.45,4.52-51.07-4.04-104.15-8.07-154.75-15.81-14.7-2.25-79.67-22.23-58.74-6.78,90.44,32.24,188.76,28.5,283.51,31.63,142.42,4.71,284.52,4.65,426.96,2.26,42.16-.71,84.36-.6,126.51-2.26,30.1-1.18,60.2-.27,90.36-2.26,3.14,110.24,16.77,145.67-56.48,231.55-95.29,111.72-229.95,178.22-378.39,147.97-52.88-10.78-90.03-39.97-105.05-45.18l2.26-9.04c180.95,100.66,410.29,17.74,460.85-140.06.15-.48,3.06-2.41,4.52-9.04,30.26,1.25,47.76-10.86,42.92-41.79l-6.78-1.13c7.11-27.7-2.51-58.87,0-86.97q-28.8-.56-57.61-1.13c-8.47,5.11-6.82,87.28-5.65,92.62-29.7,4.85,11.3,33.14,20.33,47.44-26.35,79.8-129,156.46-208.96,173.95-143.39,31.35-320.66-37.9-373.88-180.73,36.78-16.37,18.11-35.94,18.07-38.4-.46-30.48.34-61,0-91.49q-28.8-1.69-57.61-3.39c-11.5,9.19-6.39,86.12-1.13,97.14-14.61-2.93-.43-14.13-30.5,0-71.84,33.77-190.74,181.08-220.26,258.66l-4.52-5.65c15.11-123.56,9.02-271.45,2.26-396.47q-4.52,5.08-9.04,10.17c1.11-21.08,2.61-42.14,3.39-63.25,170.69,29.37,345.44,32.2,518.46,33.89Z"/>
            <path class="cls-43" d="M1078.94,1003.03c-30.16,1.98-60.27,1.07-90.36,2.26l-24.85-6.78c92.21-4.79,184.14-18.54,276.74-18.07-51.95,13.17-107.77,19.05-161.52,22.59Z"/>
            <path class="cls-56" d="M365.07,996.25c23.3,1.84,46.44,5.75,70.03,6.78v2.26c-94.76-3.13-193.07.61-283.51-31.63-20.93-15.45,44.03,4.53,58.74,6.78,50.6,7.75,103.68,11.77,154.75,15.81Z"/>
            <path class="cls-45" d="M850.77,1003.03l11.3,4.52c-142.44,2.39-284.55,2.45-426.96-2.26v-2.26c98.92,4.3,312.75,3.38,415.67,0Z"/>
            <path class="cls-30" d="M963.73,998.51l24.85,6.78c-42.15,1.66-84.35,1.55-126.51,2.26l-11.3-4.52c37.72-1.24,75.25-2.56,112.95-4.52Z"/>
            <path class="cls-30" d="M410.25,1165.68c1.47,11.08,6.48,15.01,6.78,15.81,53.22,142.83,230.49,212.08,373.88,180.73,79.97-17.49,182.61-94.15,208.96-173.95h2.26c-50.56,157.8-279.9,240.73-460.85,140.06-63.11-35.11-115.03-92.92-135.54-162.65,1.47.09,3.06.16,4.52,0Z"/>
            <path class="cls-47" d="M1006.65,1179.24c1.01-4.58,1.48-8.95,0-13.55,16.96,1.76,32.08-13.52,36.15-29.37l6.78,1.13c4.83,30.93-12.67,43.04-42.92,41.79Z"/>
            <path class="cls-39" d="M979.54,1140.83c1.94,8.85,18.03,23.91,27.11,24.85,1.48,4.6,1.01,8.97,0,13.55-1.46,6.63-4.36,8.56-4.52,9.04h-2.26c-9.03-14.3-50.03-42.59-20.33-47.44Z"/>
            <path class="cls-47" d="M417.03,1181.49c-.3-.81-5.31-4.73-6.78-15.81,12.43-1.35,18.64-13.5,24.85-22.59.04,2.47,18.71,22.04-18.07,38.4Z"/>
            <g>
              <path class="cls-44" d="M1042.8,1136.31c-4.07,15.84-19.19,31.13-36.15,29.37-9.08-.94-25.17-16-27.11-24.85-1.17-5.34-2.82-87.51,5.65-92.62q28.8.56,57.61,1.13c-2.51,28.1,7.11,59.27,0,86.97Z"/>
              <path class="cls-11" d="M1010.04,1091.13l10.17,5.65c13.04,72.83-32.1,52.99-10.17-5.65Z"/>
            </g>
          </g>
        </g>
        <g>
          <path class="cls-5" d="M914.03,533.14c8.79,2.84,107.94-2.12,133.29,0-.66,4.87-1.86,11.21-2.26,15.81h-49.7c-20.96-1.7-51.22,2.31-70.03,0-8.6-1.06-9.71.22-10.17,0-2.78-1.34-14.11-21.84-39.53-47.44-12.53-12.62-20.86-23.43-36.15-33.89.53-2.66,2.02-8.64,2.26-9.04,35.36,18.29,67.32,72.95,72.29,74.55Z"/>
          <g>
            <path class="cls-12" d="M1083.46,811.01c-2.39,37.31,3.21,89.98,0,124.25-.44,4.72-1.95,21.42-2.26,22.59-3.41,12.79-49.97,6.02-63.25,6.78v-153.62c17.68-.32,57.46,1.62,65.51,0Z"/>
            <path class="cls-3" d="M1015.69,811.01c.75,0,1.51.01,2.26,0v153.62c-.69.04-2.28,1.65-13.55,2.26.78-44.06-17.25-90.94-65.51-97.14-1.88-19.06-4.01-40.92-11.3-58.74,16.83,1.79,25.75-2.26,27.11-2.26,20.07.02,40.59,2.53,60.99,2.26Z"/>
            <path class="cls-36" d="M1004.39,966.88c-22.71,1.22-45.1,1.49-67.77,2.26,5.92-33.07,5.57-65.95,2.26-99.4,48.27,6.2,66.3,53.08,65.51,97.14Z"/>
          </g>
          <g>
            <path class="cls-57" d="M995.35,548.95v33.89c-16.43,0-60.96-1.44-67.77,0l-2.26-33.89c18.82,2.31,49.07-1.7,70.03,0Z"/>
            <path class="cls-12" d="M1026.98,548.95q-1.13,16.94-2.26,33.89h-29.37v-33.89h31.63Z"/>
            <path class="cls-29" d="M1045.05,548.95c-.44,5.06-2.46,32.2-2.26,33.89h-18.07q1.13-16.94,2.26-33.89h18.07Z"/>
          </g>
          <g>
            <path class="cls-4" d="M886.92,686.76c-2.25,5.32-16.83,41.95-15.81,44.05,1.86,3.85,55.49,34.18,68.9,50.83,6.72,8.35,4.73,16.24,12.42,22.59.19.16,2.03,3.54,2.26,4.52-1.36,0-10.28,4.05-27.11,2.26-.52-1.28-12.45-17.54-15.81-22.59-16.71-25.08-36.47-44.75-63.25-58.74v-2.26c11.6-9.27,17.98-27.27,24.85-40.66h13.55Z"/>
            <path class="cls-33" d="M1026.98,666.43c-16-1.91-61.22-.06-79.07,2.26-19.81,2.57-40.19,3.37-49.7,24.85-2.88-6.26-6.1-10.59-4.52-18.07,3.96-9.28,28.77-68.51,31.63-71.16,5.9-5.49,58.17-8.33,64.38-5.65,3.55,1.53,30.25,60.1,37.27,67.77Z"/>
            <path class="cls-18" d="M898.21,693.54c7.84,17.01,23.17,30.82,24.85,33.89,13.24,24.27,21.39,50.52,29.37,76.81-7.7-6.35-5.7-14.24-12.42-22.59-13.41-16.65-67.04-46.98-68.9-50.83-1.02-2.11,13.56-38.73,15.81-44.05,1.47-3.47,5.49-8.29,6.78-11.3-1.59,7.48,1.64,11.82,4.52,18.07Z"/>
            <g>
              <path class="cls-4" d="M927.58,582.84c6.81-1.44,51.34,0,67.77,0h47.44c.77,6.56,18.15,43.38,22.59,54.22,6.02,14.68,14.9,27.79,20.33,42.92,24.97,69.53,4.09,84.53,11.3,97.14,5.87,10.28,4.92-.09,11.3,0-7.2,11.6-11.75,31.25-24.85,33.89-8.05,1.62-47.83-.32-65.51,0-.75.01-1.51,0-2.26,0,7.22-47.45,30.19-89.32,54.22-129.9l-6.78-5.65c-1.69-.79-34.3-8.82-36.15-9.04-7.02-7.68-33.72-66.24-37.27-67.77-6.21-2.68-58.48.16-64.38,5.65-2.85,2.65-27.66,61.88-31.63,71.16-1.29,3.01-5.31,7.82-6.78,11.3h-13.55c20.68-40.35,41.45-96.47,45.18-100.53,4.49-4.89,5.31-2.6,9.04-3.39Z"/>
              <path class="cls-55" d="M1007.78,596.4c35.19-9.23,27.45,38.92,22.59,40.66-4.17,1.5-38.36-35.88-22.59-40.66Z"/>
            </g>
            <g>
              <path class="cls-21" d="M1015.69,811.01c-20.4.27-40.92-2.24-60.99-2.26-.23-.98-2.06-4.36-2.26-4.52-7.98-26.29-16.12-52.54-29.37-76.81,6.74.53,21.13-14.08,22.59-18.07,34.46-3.07,97.64-5.65,117.47-33.89l6.78,5.65c-24.02,40.57-47,82.45-54.22,129.9Z"/>
              <path class="cls-17" d="M1026.98,666.43c1.85.22,34.46,8.25,36.15,9.04-19.83,28.24-83.01,30.82-117.47,33.89,3.41-9.29,1.79-29.56,2.26-40.66,17.85-2.32,63.07-4.16,79.07-2.26Z"/>
              <path class="cls-57" d="M947.91,668.69c-.47,11.1,1.15,31.38-2.26,40.66-1.46,3.99-15.85,18.6-22.59,18.07-1.68-3.07-17.01-16.88-24.85-33.89,9.51-21.48,29.89-22.28,49.7-24.85Z"/>
            </g>
          </g>
        </g>
      </g>
    </g>
  </g>
</svg>