<?xml version="1.0" encoding="UTF-8"?>
<svg xmlns="http://www.w3.org/2000/svg" xmlns:xlink="http://www.w3.org/1999/xlink" viewBox="0 0 128 128">
  <defs>
    <style>
      .cls-1 {
        fill: #f7be21;
      }

      .cls-1, .cls-2, .cls-3, .cls-4, .cls-5, .cls-6, .cls-7, .cls-8, .cls-9, .cls-10, .cls-11, .cls-12, .cls-13, .cls-14, .cls-15, .cls-16, .cls-17, .cls-18, .cls-19, .cls-20, .cls-21 {
        stroke-width: 0px;
      }

      .cls-2 {
        fill: #fad73f;
      }

      .cls-3 {
        fill: #e3ab21;
      }

      .cls-4 {
        fill: #ea9412;
      }

      .cls-5 {
        fill: #fcbf1b;
      }

      .cls-22 {
        mix-blend-mode: lighten;
        opacity: .33;
      }

      .cls-6 {
        fill: #24351b;
      }

      .cls-7 {
        fill: #76b836;
      }

      .cls-8 {
        fill: #e45847;
      }

      .cls-23 {
        isolation: isolate;
      }

      .cls-9 {
        fill: none;
      }

      .cls-10 {
        fill: #f6a023;
      }

      .cls-11 {
        fill: #bb9136;
      }

      .cls-12 {
        fill: #ef7a2c;
      }

      .cls-13 {
        mix-blend-mode: darken;
        opacity: .56;
      }

      .cls-13, .cls-16 {
        fill: #fff;
      }

      .cls-14 {
        fill: #4c772d;
      }

      .cls-24 {
        clip-path: url(#clippath);
      }

      .cls-15 {
        fill: #f8c938;
      }

      .cls-17 {
        fill: #f2ac1b;
      }

      .cls-18 {
        fill: #24351d;
      }

      .cls-19 {
        fill: #f6c524;
      }

      .cls-20 {
        fill: #c3363e;
      }

      .cls-21 {
        fill: #e2dfd6;
      }
    </style>
    <clipPath id="clippath">
      <rect class="cls-9" x="2.77" y="2.77" width="122.46" height="122.46" rx="9.98" ry="9.98"/>
    </clipPath>
  </defs>
  <g class="cls-23">
    <g id="Layer_2" data-name="Layer 2">
      <g id="Capa_1" data-name="Capa 1">
        <g>
          <rect class="cls-6" width="128" height="128" rx="9.98" ry="9.98"/>
          <g class="cls-24">
            <ellipse class="cls-14" cx="59.82" cy="35.55" rx="87.5" ry="48.39"/>
            <g class="cls-22">
              <ellipse class="cls-13" cx="61.97" cy="-18.17" rx="87.5" ry="55.9"/>
            </g>
            <circle class="cls-5" cx="66.16" cy="-1.65" r="18.19"/>
            <circle class="cls-12" cx="109.24" cy="65.24" r="9.31"/>
            <circle class="cls-10" cx="113.96" cy="75.93" r="9.31"/>
            <circle class="cls-7" cx="98.12" cy="2.77" r="9.31"/>
            <ellipse class="cls-5" cx="-9.98" cy="31.4" rx="20.39" ry="21.73"/>
            <circle class="cls-11" cx="64" cy="71.01" r="8.77"/>
            <ellipse class="cls-5" cx="8.1" cy="11.95" rx="8.61" ry="9.18"/>
            <ellipse class="cls-5" cx="20.7" cy="19.37" rx="7.07" ry="7.91"/>
            <ellipse class="cls-5" cx="30.34" cy="4.76" rx="7.07" ry="7.91"/>
            <circle class="cls-5" cx="43.68" cy="6.96" r="3.43"/>
            <circle class="cls-5" cx="24.07" cy="33.96" r="3.43"/>
            <circle class="cls-10" cx="13.38" cy="39.42" r="6.49"/>
            <g>
              <g>
                <path class="cls-1" d="M100.29,58.35c.36,1.26.89,3.47,1.01,4.73.03.33.15,2.8.07,2.92-.13.22-.52-.11-.28.62.65.37.57-.37.63-.43.83-.82,4.75-2.72,6.01-3.17,1.18-.42,4.4-1.2,5.74-1.46-.24.98-.72,1.91-1.21,2.79-4.03,2.31-8.69,3.14-12.75,5.41.09-2.32-2.83-11.57-2.7-12.66,0-.03.16-.13.24-.46.32-1.23.86-2.37,1.33-3.53.44.88,1.59,4.17,1.9,5.25Z"/>
                <path class="cls-17" d="M112.27,64.34c-.15.27-.04.24-.04.25-.8,1.29-4.75,4.11-6.23,4.77-3.35,1.5-5.31.6-5.54.76-.7.48-6.85,13.89-7.89,15.03-.56.61-2.05-.08-1.72-1.18.27-.9,2.38-4.34,3-5.49-.51,1.87-4.01,6.26-2.38,6.36.92-2.19,7.22-12.97,7.46-13.72.02-.07-.11-1.19-.18-1.36-1.03,1.85-1.94,3.78-2.99,5.63-.38.68-1.12,1.98-1.24,1.82.55-1.02,4.23-7.43,4.27-7.88.04-.47-3.09-2-2.67-8.73.08-1.31.39-2.59.61-3.87l.32-.1c-.08.33-.24.43-.24.46-.13,1.1,2.79,10.35,2.7,12.66,4.05-2.27,8.72-3.1,12.75-5.41Z"/>
                <path class="cls-1" d="M93.85,78.47c.23-.42.45-.85.67-1.27.12.15.85-1.14,1.24-1.82,1.05-1.85,1.95-3.78,2.99-5.63.07.17.2,1.29.18,1.36-.24.74-6.54,11.53-7.46,13.72-1.63-.1,1.87-4.49,2.38-6.36Z"/>
                <path class="cls-2" d="M101.29,61.22c.21,1.54.42,3.06.39,4.62.99-.72,2.04-1.42,3.15-1.94.83-.39,2.22-.72,2.88-1l.03.11c-1.26.45-5.18,2.35-6.01,3.17-.06.06.02.8-.63.43-.24-.73.15-.4.28-.62.08-.13-.04-2.59-.07-2.92-.12-1.26-.64-3.47-1.01-4.73l.07-.14c.24,1.01.74,1.99.92,3.02Z"/>
                <path class="cls-1" d="M112.22,64.59s-.11.02.04-.25c.49-.88.97-1.8,1.21-2.79.19-.04.78-.31.97-.21.73,1.18-1.48,2.56-2.22,3.24Z"/>
                <path class="cls-2" d="M98.39,53.1c-.48,1.17-1.02,2.3-1.33,3.53l-.32.1c.16-.89.24-3.75,1.26-4.07.41-.18.31.26.4.44Z"/>
              </g>
              <path class="cls-1" d="M112.36,34.09c.71,2.69,1.42,6.29,1.06,9.04-.02.13-.37.42.06.66.58.05.42-.45.51-.54,1.29-1.23,5.68-3.13,7.5-3.77.7-.25,4.43-1.36,5.03-1.48.05.03.13.05.12.11-.05.3-1.37,2.55-1.69,2.85-.02.01-.24-.03-.27,0-2.43,2.04-6.12,2.92-9.05,4.13-1.27.53-3.55,1.92-3.94,1.56-.19-2.23-2.74-11.89-2.55-13.12.05-.34.17-.26.21-.39.38-1.26,1.15-2.35,1.48-3.63.28.52,1.31,3.78,1.53,4.6Z"/>
              <path class="cls-17" d="M125.06,41.1c-.1.1-.55.74-.97,1.15-1.94,1.86-4.09,3.71-6.58,4.76-1.02.43-2.22.68-3.27,1.06,2.32-1.04-.59-.41-2.15-.96-.77-.27-2.05-1.63-2.73-2.08-.11-.5-.67-2.2-.89-2.91-.05-.16-.1-.14-.1-.15-.17-1.15-.3-2.45-.25-3.61.06-1.33.57-3.98.86-5.36l.39.12c-.04.12-.15.05-.21.39-.19,1.24,2.36,10.89,2.55,13.12.39.36,2.67-1.04,3.94-1.56,2.93-1.21,6.61-2.09,9.05-4.13.03-.02.25.02.27,0l.1.15Z"/>
              <path class="cls-2" d="M113.42,37.53c.36,1.8.5,3.62.4,5.44.99-.76,2.06-1.46,3.18-2.01,1.43-.7,3.01-1,4.46-1.6l.03.11c-1.82.65-6.21,2.54-7.5,3.77l-.57-.12c.36-2.75-.35-6.36-1.06-9.04l.11-.03c.21,1.17.71,2.32.95,3.48Z"/>
              <path class="cls-2" d="M110.83,29.49c-.33,1.28-1.1,2.37-1.48,3.63l-.39-.12c.26-1.25.38-3.69,1.66-3.9.24.07.19.36.2.38Z"/>
              <path class="cls-2" d="M125.06,41.1l-.1-.15c.32-.3,1.64-2.54,1.69-2.85,0-.06-.07-.08-.12-.11.14-.03.43-.19.64-.11.1.65.12.92-.3,1.51-.13.18-.28.02-.29.03-.06.08-.29.6-.37.7-.05.06-.93.74-1.15.97Z"/>
              <path class="cls-1" d="M113.42,43.13l.57.12c-.09.09.06.59-.51.54-.42-.24-.07-.53-.06-.66Z"/>
              <path class="cls-4" d="M107.62,54.57c.11.03.1-.03.11-.03.92.63,2.18.42,3.15.86-1.82.72-3.54,1.63-5.13,2.78.01-2.04-.21-4.03-.64-6.02.21-.12.3.51.66.89.18.19,1.74,1.49,1.85,1.52Z"/>
              <g>
                <path class="cls-1" d="M108.36,41.97s-.03.02,0,.18c.49,3.15,1.47,4.44,1.04,8.58-.02.16-.34.3.13.7.6-.08.42-.44.51-.54,1.3-1.36,5.61-3.09,7.5-3.77,1.33-.48,2.72-.88,4.09-1.25l.26.18c-.44.73-.56,1.59-.9,2.37-.3.51-.38.17-.63.34-.05.03.06.21-.84.73-2.04,1.19-5.33,2.16-7.59,3.09-.63.26-3.97,1.96-4.2,1.96,0,0,0,.06-.11.03-.12-2.99-2.72-11.18-2.58-13.14.02-.34.07-.71.19-1.03.41-1.11,1.24-2.15,1.51-3.35.13.23,1.43,4.27,1.63,4.92Z"/>
                <path class="cls-17" d="M120.88,48.8c-.08.15,0,.2-.06.28-.13.2-3.09,2.87-3.5,3.19-1.16.92-2.49,1.76-3.85,2.33-.87.36-2.01.56-2.59.79-.97-.44-2.23-.23-3.15-.86.23,0,3.57-1.71,4.2-1.96,2.27-.94,5.55-1.91,7.59-3.09.89-.52.79-.7.84-.73.25-.17.34.16.63-.34-.05.13-.02.21-.12.39Z"/>
                <path class="cls-1" d="M107.62,54.57c-.12-.03-1.68-1.34-1.85-1.52-.36-.38-.44-1.01-.66-.89-.18-.82-.62-1.73-.79-2.59-.62-3.04.05-6.05.65-9.04l.25-.14c-.12.32-.16.69-.19,1.03-.13,1.96,2.47,10.15,2.58,13.14Z"/>
                <path class="cls-2" d="M109.35,45.03c.4,1.82.46,3.7.44,5.55,1.38-1.01,2.89-1.8,4.44-2.51,1.05-.38,2.25-.63,3.27-1.06l.03.11c-1.89.69-6.2,2.41-7.5,3.77l-.64-.16c.43-4.14-.55-5.42-1.04-8.58l.11-.03c.22.71.78,2.41.89,2.91Z"/>
                <path class="cls-1" d="M120.88,48.8c.09-.18.06-.26.12-.39.33-.77.46-1.63.9-2.37l-.26-.18c.81-.22,1.5-.72,1.52-.14,0,1.6-.81,1.12-.54,1.52-.58.42-1.17,1.25-1.73,1.56Z"/>
                <path class="cls-2" d="M106.73,37.05c-.27,1.2-1.1,2.24-1.51,3.35l-.25.14c.25-1.27.1-2.8,1.18-3.75.37-.16.41-.04.58.26Z"/>
                <path class="cls-1" d="M110.03,50.89c-.09.1.09.46-.51.54-.46-.4-.14-.53-.13-.7l.64.16Z"/>
                <path class="cls-21" d="M108.46,42.12l-.11.03c-.02-.16,0-.17,0-.18,0,0,.06-.01.1.15Z"/>
              </g>
              <path class="cls-4" d="M104.83,63.91c-1.11.52-2.16,1.22-3.15,1.94.03-1.56-.17-3.08-.39-4.62-.31-2.24-.33-1.21.93-.14.19.16,1.22.94,1.33.98.21.07.17,0,.18,0,.76.56,2.49.65,3.48.67.16.31-2.09.68-2.38,1.17Z"/>
              <g>
                <path class="cls-1" d="M104.21,49.6c.74,2.6,1.41,6.03,1.14,8.72,0,.05-.48.8.32.58l.14-.42c.23,0,2.45-1.58,3.92-2.29,1.06-.51,2.63-1.09,3.76-1.48,1.35-.46,3.02-.88,4.41-1.18l-1.17,2.72c-.61.31-1.16.77-1.76,1.1-1.91,1.06-5.17,2.02-7.3,2.89-.61.25-3.73,1.81-3.95,1.83,0,0,.03.07-.18,0-.08-2.74-2.81-11.12-2.63-12.89.02-.22.07-.4.14-.6.38-1.18,1.16-2.31,1.58-3.49.24.54,1.36,3.82,1.56,4.53Z"/>
                <path class="cls-17" d="M116.88,56.33c-.61.62-1.18,1.38-1.88,2.02-2.7,2.45-4.01,3.16-7.29,4.56-.65.28-2.05.61-2.88,1,.29-.5,2.54-.86,2.38-1.17-.99-.02-2.72-.11-3.48-.67.22-.02,3.34-1.58,3.95-1.83,2.13-.86,5.39-1.83,7.3-2.89.6-.33,1.14-.79,1.76-1.1l-.08.23.2-.3v.14Z"/>
                <path class="cls-17" d="M103.55,62.06c-.11-.04-1.14-.82-1.33-.98-1.26-1.07-1.24-2.1-.93.14-.19-1.03-.69-2.01-.92-3.02-.75-3.22-.26-6.34.37-9.54l.32-.1c-.07.21-.12.38-.14.6-.18,1.77,2.55,10.15,2.63,12.89Z"/>
                <path class="cls-2" d="M105.11,52.16c.43,1.99.65,3.98.64,6.02,1.58-1.15,3.31-2.06,5.13-2.78.58-.23,1.72-.43,2.59-.79l.03.11c-1.13.38-2.7.97-3.76,1.48-1.48.71-3.7,2.3-3.92,2.29-.07,0-.23-.19-.46-.15.26-2.69-.4-6.12-1.14-8.72l.11-.03c.17.85.61,1.77.79,2.59Z"/>
                <path class="cls-2" d="M102.65,45.08c-.42,1.18-1.2,2.31-1.58,3.49l-.32.1c.26-1.32.38-3.89,1.74-4.04.16.06.14.39.17.45Z"/>
                <path class="cls-1" d="M116.88,56.33v-.14q-.12.15-.22.3l.08-.23,1.17-2.72c.22-.05.74-.38.97-.21.47,1.45-1.6,2.58-1.8,2.79-.12.12-.03.24-.04.25-.05.05-.15-.05-.16-.04Z"/>
                <path class="cls-1" d="M105.82,58.48l-.14.42c-.8.22-.33-.53-.32-.58.23-.04.39.15.46.15Z"/>
              </g>
              <path class="cls-4" d="M117,40.97c-1.12.55-2.2,1.24-3.18,2.01.09-1.83-.04-3.65-.4-5.44.07-.5.92.89,2.35,1.7.04.02.03.02.07.04,1.16.57,2.85.54,4.13.3l.05.16c-1.07.29-2.1.71-3.13,1.14l.12.11Z"/>
              <path class="cls-4" d="M114.23,48.07c-1.56.71-3.06,1.5-4.44,2.51.03-1.85-.04-3.74-.44-5.55.68.45,1.96,1.81,2.73,2.08,1.56.55,4.47-.08,2.15.96Z"/>
              <g>
                <path class="cls-1" d="M117.22,29.18c-.06-.04-.13,0-.13.07,0,.31.88,4.19.4,6.21-.02.08-.63.49.16.81.53-.15.32-.55.37-.61,1.28-1.64,6.31-3.21,8.26-4.18.92-.29,3.24-1.02,3.95-1.15-.43.51-.48.97-.71,1.52-.4.32-.54,1.02-.84,1.41-1.18,1.56-10.64,4.42-12.85,6.03-.04-.02-.03-.01-.07-.04-.46-4.54-2.13-8.82-2.56-13.36.7-1,1.24-2.54,1.76-3.66.57,1.06,1.78,5.43,2.25,6.97Z"/>
                <path class="cls-17" d="M128.77,33.59c-2.17,2.17-4.43,4.58-7.3,5.77-1.45.6-3.03.91-4.46,1.6l-.12-.11c1.02-.43,2.05-.84,3.13-1.14l-.05-.16c-1.27.25-2.97.27-4.13-.3,2.21-1.61,11.67-4.48,12.85-6.03.29-.39.44-1.08.84-1.41-.25.58-.58,1.15-.76,1.76Z"/>
                <path class="cls-1" d="M115.76,39.23c-1.42-.81-2.28-2.2-2.35-1.7-.24-1.16-.74-2.31-.95-3.48-.52-2.85.07-5.36.63-8.15.06.04.07.02.11-.03.44,4.53,2.1,8.82,2.56,13.36Z"/>
                <path class="cls-2" d="M114.97,22.21c-.52,1.13-1.06,2.66-1.76,3.66-.03.05-.05.07-.11.03.2-1,.33-3.68,1.36-4.1.57-.23.4.21.51.4Z"/>
              </g>
              <path class="cls-1" d="M118.02,35.65c-.05.06.16.47-.37.61-.79-.32-.18-.72-.16-.81l.53.19Z"/>
              <g>
                <path class="cls-17" d="M123.16,32.42c-.2.23-3.88,1.59-5.27,2.88-.1-.04-.02-1.52-.03-1.73,2.97-3.61,7.29-7.87,7.57-12.49l-.36.08-.07-.04.58-.32c.63,2.82-.68,9.65-2.42,11.61Z"/>
                <path class="cls-2" d="M117.86,33.58c0,.21-.07,1.69.03,1.73,1.39-1.29,5.07-2.66,5.27-2.88,1.09-.19,2.07-.63,3.12-.96-1.96.97-6.98,2.54-8.26,4.18l-.53-.19c.48-2.02-.4-5.9-.4-6.21,0-.06.06-.11.13-.07.33,1.07.19.2.34-.13,1.01-2.24,2.82-4.69,4.75-6.23.77-.62,1.86-1.13,2.7-1.68l.07.04c-.1.1-.02.2-.02.21-.36.45-5.42,3.43-7.06,8.88-.36,1.19-.19,2.13-.13,3.31Z"/>
                <path class="cls-1" d="M117.86,33.58c-.05-1.18-.22-2.12.13-3.31,1.64-5.45,6.7-8.43,7.06-8.88,0,0-.07-.11.02-.21l.36-.08c-.28,4.61-4.6,8.87-7.57,12.49Z"/>
              </g>
            </g>
            <circle class="cls-19" cx="117.86" cy="10.14" r="7.37"/>
            <g>
              <path class="cls-8" d="M25.45,68.16c.47.11,1.23-.46,1.41-.11-.35,5.5,2.07,11.21,2.7,15.11.18,1.11-.04,2.82.03,3.98-1.22.37-6.55,1.77-7.54,1.96-1.81.34-2.96.08-4.05-1.5l-5.13-16.17,12.59-3.26Z"/>
              <path class="cls-20" d="M26.87,67.79l2.76-.72c.57,3.3,3.31,15.25,3.37,16.33.05.86-.39,1.99-1.01,2.6-.84.82-1.41.82-2.4,1.13-.07-1.16.15-2.87-.03-3.98-.63-3.9-3.05-9.61-2.7-15.11-.18-.35-.93.22-1.41.11l1.41-.37Z"/>
              <path class="cls-3" d="M25.86,57.28c3.73,3.3,3,5.4,3.76,9.8l-2.76.72c.02-3.4.29-6.73-2.7-9.04-.33-.25-.82-.47-1.2-.73l2.89-.75Z"/>
              <g>
                <path class="cls-8" d="M14.88,39.29c-.06,1.35-.02,2.71.19,4.05-.96.26-1.9.6-2.88.82-.39.09-1.12.37-1.24.21l-.92-3.82c1.61-.44,3.23-.86,4.85-1.26Z"/>
                <path class="cls-20" d="M16.97,42.91c-.57.18-1.17.3-1.75.45-.18.05-.14-.03-.15-.03-.2-1.34-.24-2.7-.19-4.05.7-.17,1.38-.4,2.1-.51l.98,3.77c-.09.21-.55.23-.98.36Z"/>
              </g>
              <path class="cls-15" d="M22.65,57.89c.05.04.27.1.32.13.38.26.87.48,1.2.73,2.99,2.31,2.73,5.64,2.7,9.04l-1.41.37-12.59,3.26s-.17-.12-.18-.13c-1.48-4.02-3-5.47-1.43-9.94,3.62-1.65,7.57-2.37,11.39-3.46Z"/>
              <g>
                <path class="cls-20" d="M19.08,49.41c.48,1.37.81,2.79,1.68,3.98,1.02,1.41,3.45,2.42,5.1,3.89l-2.89.75c-.05-.04-.27-.1-.32-.13-3.99-2.75-3.79-4.42-5.05-8.1l1.48-.38Z"/>
                <path class="cls-8" d="M17.6,49.79c1.25,3.69,1.06,5.35,5.05,8.1-3.82,1.09-7.77,1.81-11.39,3.46.77-2.19,2.44-4.52,2.65-6.11.17-1.3-.2-3.06-.42-4.38l4.11-1.06Z"/>
              </g>
              <g>
                <path class="cls-3" d="M16.97,42.91c.75,2.15,1.36,4.34,2.11,6.49l-1.48.38c-.74-2.16-1.39-4.36-2.38-6.42.58-.16,1.18-.28,1.75-.45Z"/>
                <path class="cls-15" d="M15.22,43.37c.99,2.07,1.65,4.26,2.38,6.42l-4.11,1.06c-.36-2.24-.92-4.47-1.31-6.7.98-.22,1.92-.56,2.88-.82,0,0-.02.08.15.03Z"/>
              </g>
            </g>
            <circle class="cls-10" cx="43.95" cy="53.09" r="19.83"/>
            <circle class="cls-7" cx="85.13" cy="53.21" r="15.15"/>
            <circle class="cls-12" cx="35.57" cy="21.77" r="11.45"/>
            <circle class="cls-19" cx="73.23" cy="46.46" r="7.37"/>
            <rect class="cls-6" x="37.28" y="21.38" width="56.98" height="80.21"/>
          </g>
          <g>
            <path class="cls-16" d="M34.94,117.41c-6.8,0-12.33-5.53-12.33-12.33V22.92c0-6.8,5.53-12.33,12.33-12.33h29.47c8.4,0,14.65.29,18.58.85,4.02.58,8.06,1.87,12,3.84,4.21,2.13,7.38,5.04,9.45,8.65,2.05,3.58,3.09,7.72,3.09,12.28,0,5.31-1.43,10.06-4.24,14.13-2.23,3.22-5.2,5.9-8.88,7.99,5.57,1.6,10.15,4.29,13.66,8.02,4.23,4.5,6.37,10.47,6.37,17.76,0,5.24-1.08,10-3.2,14.14-2.12,4.14-5.07,7.62-8.78,10.35-4.22,3.16-8.93,5.45-14,6.8-5.01,1.33-11.41,2-19.04,2h-34.49ZM59.83,95.37h.15c3.83-.02,6.77-.04,8.84-.07,3.04-.04,5.87-.61,8.41-1.69,2.45-1.02,4.14-2.36,5.01-3.97.92-1.7,1.38-3.7,1.38-5.94,0-2.97-.55-5.24-1.63-6.76-1.07-1.5-2.99-2.66-5.7-3.44-1.95-.56-4.72-.87-8.23-.92-2.59-.03-5.29-.05-8.05-.06h-.11s-.07-.01-.07-.01h-8.38l-.37.08c-1.41.32-2.39,1.54-2.39,2.99v16.73c0,1.44.98,2.67,2.39,2.99l.37.08h8.38ZM59.91,51.59l.37-.04h.06c1.98-.04,3.77-.09,5.33-.16,2.77-.13,4.95-.55,6.49-1.26,2.07-.92,3.41-2.05,3.99-3.39.66-1.5.99-3.28.99-5.29,0-1.48-.38-2.99-1.13-4.49-.69-1.39-1.92-2.4-3.76-3.1-1.78-.68-4.07-1.06-6.79-1.12-1.47-.04-3.24-.06-5.31-.08-.15,0-.23-.02-.31-.03h-8.4s-.37.08-.37.08c-1.41.32-2.39,1.54-2.39,2.99v12.83c0,1.44.98,2.67,2.39,2.99l.36.08h8.47Z"/>
            <path class="cls-18" d="M64.42,12.09c8.37,0,14.49.28,18.37.84,3.88.56,7.73,1.79,11.54,3.7,3.95,2,6.89,4.68,8.82,8.05,1.93,3.37,2.89,7.22,2.89,11.54,0,5.02-1.32,9.45-3.97,13.28-2.65,3.83-6.39,6.82-11.23,8.96v.56c6.79,1.35,12.17,4.14,16.14,8.37,3.97,4.23,5.96,9.81,5.96,16.73,0,5.02-1.01,9.51-3.03,13.46-2.02,3.95-4.8,7.23-8.33,9.83-4.09,3.07-8.59,5.25-13.49,6.55-4.9,1.3-11.12,1.95-18.65,1.95h-34.49c-5.98,0-10.83-4.85-10.83-10.83V22.92c0-5.98,4.85-10.83,10.83-10.83h29.47M50.75,53.09h9.16c.16,0,.31-.03.46-.05,1.97-.03,3.77-.09,5.37-.16,2.97-.14,5.32-.6,7.04-1.39,2.42-1.07,4-2.45,4.74-4.15.74-1.7,1.12-3.66,1.12-5.89,0-1.72-.43-3.44-1.29-5.16-.86-1.72-2.38-3-4.57-3.83-1.95-.74-4.38-1.15-7.29-1.22-1.47-.04-3.25-.06-5.33-.08-.09,0-.17-.03-.25-.03h-9.16v.12c-2.04.46-3.57,2.27-3.57,4.45v12.83c0,2.18,1.53,3.99,3.57,4.45v.12M50.75,96.87h9.16s.06,0,.09,0c3.81-.01,6.77-.03,8.84-.06,3.25-.05,6.24-.65,8.98-1.81,2.78-1.16,4.7-2.71,5.74-4.64,1.04-1.93,1.56-4.15,1.56-6.66,0-3.3-.64-5.84-1.91-7.63-1.28-1.79-3.44-3.13-6.51-4.01-2.09-.6-4.96-.93-8.63-.98-2.6-.03-5.3-.05-8.06-.06-.04,0-.07-.01-.1-.01h-9.16v.12c-2.04.46-3.57,2.27-3.57,4.45v16.73c0,2.18,1.53,3.99,3.57,4.45v.12M64.42,9.09h-29.47c-7.62,0-13.83,6.2-13.83,13.83v82.16c0,7.62,6.2,13.83,13.83,13.83h34.49c7.75,0,14.29-.69,19.42-2.05,5.25-1.39,10.14-3.77,14.52-7.05,3.87-2.85,6.98-6.51,9.2-10.86,2.23-4.36,3.36-9.35,3.36-14.82,0-7.68-2.28-14-6.77-18.79-3.03-3.22-6.81-5.71-11.29-7.42,2.65-1.89,4.88-4.13,6.66-6.71,2.99-4.33,4.51-9.37,4.51-14.99,0-4.83-1.11-9.21-3.29-13.03-2.22-3.87-5.6-6.98-10.07-9.24-4.09-2.05-8.28-3.39-12.47-3.99-4.06-.58-10.21-.87-18.8-.87h0ZM51.61,34.13h8.15c.08,0,.16.02.24.02h.07s.07,0,.07,0c2.06.02,3.84.04,5.29.08,2.55.06,4.66.41,6.29,1.02,1.47.56,2.43,1.34,2.95,2.37.65,1.31.97,2.56.97,3.82,0,1.8-.29,3.38-.86,4.69-.43.98-1.51,1.86-3.21,2.61-1.4.64-3.39,1.02-5.97,1.14-1.52.07-3.3.13-5.28.16h-.12s-.12.01-.12.01c-.09,0-.17.02-.25.03h0s-4.88,0-4.88,0h-3.32l-.2-.05c-.71-.16-1.22-.8-1.22-1.52v-12.83c0-.72.51-1.36,1.22-1.52l.2-.05h0ZM51.61,74.01h8.15c.06,0,.12,0,.19,0h.03s.03,0,.03,0c3.09.01,5.72.03,8.04.06,3.37.04,6.01.33,7.83.86,2.38.69,4.03,1.65,4.9,2.87.9,1.26,1.36,3.24,1.36,5.89,0,2.02-.39,3.73-1.2,5.23-.71,1.3-2.14,2.41-4.26,3.3-2.38,1.01-5.02,1.54-7.86,1.58-2.05.03-5.01.05-8.81.06h-.22s-.06,0-.06,0h-8.1l-.2-.05c-.71-.16-1.22-.8-1.22-1.52v-16.73c0-.72.51-1.36,1.22-1.52l.2-.05h0Z"/>
          </g>
        </g>
      </g>
    </g>
  </g>
</svg>